<svg xmlns="http://www.w3.org/2000/svg" xmlns:xlink="http://www.w3.org/1999/xlink" width="246.152" height="176.734" viewBox="0 0 246.152 176.734">
  <defs>
    <linearGradient id="linear-gradient" x1="0.5" y1="1" x2="0.5" gradientUnits="objectBoundingBox">
      <stop offset="0" stop-color="#fffdff" stop-opacity="0"/>
      <stop offset="1" stop-color="#fff"/>
    </linearGradient>
    <linearGradient id="linear-gradient-2" x1="0.498" y1="-0.091" x2="0.5" y2="1.01" gradientUnits="objectBoundingBox">
      <stop offset="0" stop-color="#50adb5"/>
      <stop offset="1" stop-color="#fc8ef7"/>
    </linearGradient>
    <linearGradient id="linear-gradient-3" x1="0.5" y1="1" x2="0.5" gradientUnits="objectBoundingBox">
      <stop offset="0" stop-color="#d6bbf2"/>
      <stop offset="1" stop-color="#fff"/>
    </linearGradient>
    <linearGradient id="linear-gradient-10" x1="0" y1="0.5" x2="1" y2="0.5" xlink:href="#linear-gradient-2"/>
  </defs>
  <g id="Game" transform="translate(-1009.623 -276.278)">
    <g id="Group_61" data-name="Group 61">
      <rect id="Rectangle_13" data-name="Rectangle 13" width="246.152" height="176.734" rx="21.361" transform="translate(1009.623 276.278)" opacity="0.78" fill="url(#linear-gradient)" style="mix-blend-mode: overlay;isolation: isolate"/>
      <g id="Group_60" data-name="Group 60">
        <path id="Path_38" data-name="Path 38" d="M1201.887,335.884a10.589,10.589,0,0,0-10.554-9.724H1074.065a10.589,10.589,0,0,0-10.554,9.724l-4.733,57.77a14.6,14.6,0,0,0,14.6,14.6h0a15.716,15.716,0,0,0,13.3-7.335L1096.4,385.5a15.72,15.72,0,0,1,13.3-7.336h46A15.717,15.717,0,0,1,1169,385.5l9.722,15.421a15.718,15.718,0,0,0,13.3,7.335h0a14.6,14.6,0,0,0,14.6-14.6Z" fill="url(#linear-gradient-2)"/>
        <g id="Group_59" data-name="Group 59">
          <g id="Group_54" data-name="Group 54">
            <g id="Group_48" data-name="Group 48">
              <rect id="Rectangle_14" data-name="Rectangle 14" width="49.649" height="30.083" rx="0.713" transform="translate(1107.874 321.032)" fill="url(#linear-gradient-3)"/>
            </g>
            <g id="Group_51" data-name="Group 51">
              <g id="Group_49" data-name="Group 49">
                <rect id="Rectangle_15" data-name="Rectangle 15" width="8.805" height="2.813" transform="translate(1121.214 361.509)" fill="url(#linear-gradient-3)"/>
              </g>
              <g id="Group_50" data-name="Group 50">
                <rect id="Rectangle_16" data-name="Rectangle 16" width="8.805" height="2.813" transform="translate(1135.379 361.509)" fill="url(#linear-gradient-3)"/>
              </g>
            </g>
            <g id="Group_52" data-name="Group 52">
              <path id="Rectangle_17" data-name="Rectangle 17" d="M.87,0H21.714a.87.87,0,0,1,.87.87V4.555a0,0,0,0,1,0,0H0a0,0,0,0,1,0,0V.87A.87.87,0,0,1,.87,0Z" transform="translate(1074.203 321.605)" fill="url(#linear-gradient-3)"/>
            </g>
            <g id="Group_53" data-name="Group 53">
              <path id="Rectangle_18" data-name="Rectangle 18" d="M.87,0H21.714a.87.87,0,0,1,.87.87V4.555a0,0,0,0,1,0,0H0a0,0,0,0,1,0,0V.87A.87.87,0,0,1,.87,0Z" transform="translate(1168.61 321.605)" fill="url(#linear-gradient-3)"/>
            </g>
          </g>
          <g id="Group_58" data-name="Group 58">
            <g id="Group_55" data-name="Group 55">
              <circle id="Ellipse_4" data-name="Ellipse 4" cx="14.554" cy="14.554" r="14.554" transform="translate(1165.348 337.651)" fill="url(#linear-gradient-3)"/>
            </g>
            <g id="Group_56" data-name="Group 56">
              <circle id="Ellipse_5" data-name="Ellipse 5" cx="14.554" cy="14.554" r="14.554" transform="translate(1070.941 337.651)" fill="url(#linear-gradient-3)"/>
            </g>
            <g id="Group_57" data-name="Group 57">
              <path id="Path_39" data-name="Path 39" d="M1095.86,354.849H1088.1v7.7h-5.246v-7.7h-7.718V349.6h7.718v-7.74h5.246v7.74h7.763Z" fill="url(#linear-gradient-10)"/>
            </g>
            <path id="Path_40" data-name="Path 40" d="M1179.9,341.955a3.537,3.537,0,1,1-3.538,3.536A3.538,3.538,0,0,1,1179.9,341.955Zm-3.173,10.25a3.539,3.539,0,1,0-3.539,3.538A3.541,3.541,0,0,0,1176.729,352.2Zm6.712,6.711a3.539,3.539,0,1,0-3.539,3.539A3.539,3.539,0,0,0,1183.441,358.916Zm6.711-6.711a3.538,3.538,0,1,0-3.538,3.538A3.54,3.54,0,0,0,1190.152,352.2Z" fill="url(#linear-gradient-10)"/>
          </g>
        </g>
      </g>
    </g>
  </g>
</svg>
