<svg xmlns="http://www.w3.org/2000/svg" width="947.27" height="545.05" viewBox="0 0 947.27 545.05">
  <g id="OBJECT" transform="translate(-972.73)">
    <g id="Group_47" data-name="Group 47" opacity="0.2">
      <g id="Group_41" data-name="Group 41">
        <path id="Path_33" data-name="Path 33" d="M1576.94,236.29c-19.44-22.52-49.2-44.55-83.81-62.05s-70-28.41-99.66-30.72c-30.59-2.38-51.68,4.72-59.41,20.01-7.73,15.27-.94,36.48,19.11,59.7,19.44,22.51,49.2,44.55,83.81,62.05s70,28.41,99.66,30.72q5.8.45,11.15.45c24.56,0,41.51-7.11,48.26-20.46C1603.77,280.71,1596.99,259.51,1576.94,236.29Zm13.65,56.94c-6.44,12.74-25.93,18.81-53.48,16.67-28.88-2.25-63.46-12.93-97.37-30.08s-63.02-38.66-81.95-60.59c-18.05-20.91-24.71-40.21-18.27-52.95,5.59-11.05,21.01-17.09,42.99-17.09,3.35,0,6.85.14,10.48.43,28.88,2.25,63.46,12.93,97.38,30.07s63.01,38.67,81.94,60.59C1590.37,261.2,1597.03,280.5,1590.59,293.23Z" fill="#fff"/>
      </g>
      <g id="Group_42" data-name="Group 42" opacity="0.3">
        <path id="Path_34" data-name="Path 34" d="M1733.44,537.3c-108.88-8.47-239.1-48.66-366.67-113.16s-237.13-145.55-308.5-228.22c-34.57-40.04-58.25-78.24-70.37-113.54C977.2,51.24,975.98,23.59,984.22,0h-6.44c-7.96,24.44-6.51,52.75,4.35,84.37,12.38,36.03,36.44,74.91,71.52,115.54,71.88,83.26,182.11,164.82,310.37,229.67s259.29,105.27,368.95,113.81q21.39,1.665,41.07,1.66c36.08,0,67.71-4.2,94.38-12.56q31.065-9.72,51.58-26.48v-8.05c-13.58,12.23-31.43,21.83-53.4,28.71C1830.98,537.83,1786.18,541.41,1733.44,537.3Zm143.01-277.69a701.012,701.012,0,0,0-52.83-54.58c-.97-.9-1.93-1.8-2.91-2.7q-8.79-8.1-18.02-16.15c-20.29-17.67-42.12-35.06-65.29-52q-9.69-7.08-19.69-14.05c-1.08-.76-2.16-1.52-3.25-2.26a1258.789,1258.789,0,0,0-148.37-87.94Q1534.5,13.955,1502.8,0h-15.33q37.905,16.2,75.87,35.38a1253.757,1253.757,0,0,1,147.45,87.37c1.09.74,2.17,1.49,3.25,2.25q9.945,6.93,19.6,13.99c23.14,16.91,44.95,34.27,65.21,51.93q9.18,8.01,17.94,16.1c.97.89,1.94,1.79,2.9,2.68a695.613,695.613,0,0,1,52.14,53.89q29.4,34.05,48.17,66.12V317.93A474.306,474.306,0,0,0,1876.45,259.61Z" fill="#fff"/>
      </g>
      <g id="Group_43" data-name="Group 43" opacity="0.3">
        <path id="Path_35" data-name="Path 35" d="M1913.1,96.36a2.879,2.879,0,0,0-2.84,5.01l.06.04a2.852,2.852,0,0,0,3.9-1.1A2.918,2.918,0,0,0,1913.1,96.36Zm-12.37-7.23-.1-.06a2.881,2.881,0,0,0-2.9,4.98l1.52-2.45-1.49,2.46a2.878,2.878,0,0,0,2.97-4.93Zm-12.3-7.6a2.879,2.879,0,1,0-3.12,4.84c.01,0,.07.04.07.05a2.844,2.844,0,0,0,1.52.44,2.887,2.887,0,0,0,1.53-5.33Zm-11.99-7.85a.874.874,0,0,1-.1-.07,2.882,2.882,0,0,0-3.16,4.82l1.64-2.37-1.62,2.38a2.879,2.879,0,1,0,3.24-4.76Zm-11.88-8.25a2.88,2.88,0,1,0-3.37,4.67s.06.04.07.05a2.858,2.858,0,0,0,1.64.53,2.894,2.894,0,0,0,1.66-5.25Zm-11.55-8.56a2.882,2.882,0,0,0-3.54,4.55c.01.01.08.06.08.06a2.846,2.846,0,0,0,4-.56A2.908,2.908,0,0,0,1853.01,56.87Zm-11.23-8.89s-.06-.05-.07-.06a2.882,2.882,0,0,0-3.64,4.47l1.88-2.19-1.84,2.22a2.892,2.892,0,0,0,4.06-.38A2.887,2.887,0,0,0,1841.78,47.98Zm-10.95-9.34a2.88,2.88,0,1,0-3.9,4.24l.12.11a2.9,2.9,0,0,0,1.89.7,2.875,2.875,0,0,0,1.89-5.05Zm-10.53-9.75a2.885,2.885,0,0,0-4.08,4.08l.12.11a2.883,2.883,0,1,0,3.96-4.19Zm-10.03-10.17-.09-.1a2.879,2.879,0,0,0-4.16,3.98l2.14-1.93-2.12,1.95a2.845,2.845,0,0,0,2.12.93,2.875,2.875,0,0,0,2.11-4.83Zm-9.53-10.79a2.88,2.88,0,0,0-4.43,3.68l.06.08a2.846,2.846,0,0,0,2.18,1.01,2.889,2.889,0,0,0,2.19-4.77ZM1787.3,0a.01.01,0,0,1,.01.01l.06.08a2.835,2.835,0,0,0,2.3,1.18,2.959,2.959,0,0,0,1.71-.56,2.862,2.862,0,0,0,.68-.71Z" fill="#fff"/>
      </g>
      <g id="Group_44" data-name="Group 44" opacity="0.5">
        <path id="Path_36" data-name="Path 36" d="M1674.08,244.5c-36.49-42.27-92.44-83.67-157.53-116.58s-131.61-53.43-187.28-57.76c-56.32-4.38-95,8.36-108.92,35.87s-1.24,66.22,35.68,108.99c36.49,42.26,92.44,83.67,157.53,116.58s131.6,53.43,187.28,57.76q10.905.84,20.92.84c44.98,0,75.88-12.75,87.99-36.72C1723.67,325.97,1711,287.26,1674.08,244.5Zm31.85,107.05c-6.55,12.96-19.16,22.43-37.48,28.17-17.98,5.64-40.62,7.44-67.28,5.37-55.13-4.29-121.07-24.65-185.68-57.31s-120.09-73.71-156.22-115.56c-17.48-20.25-29.44-39.55-35.57-57.37-6.23-18.16-6.07-33.93.48-46.88s19.16-22.44,37.47-28.18c13.17-4.12,28.83-6.19,46.74-6.19q9.825,0,20.55.83c55.12,4.29,121.07,24.64,185.67,57.31s120.09,73.71,156.23,115.56c17.47,20.24,29.44,39.55,35.56,57.37C1712.64,322.82,1712.48,338.6,1705.93,351.55Z" fill="#fff"/>
      </g>
      <g id="Group_46" data-name="Group 46">
        <circle id="Ellipse_1" data-name="Ellipse 1" cx="41.822" cy="41.822" r="41.822" transform="matrix(0.248, -0.969, 0.969, 0.248, 1717.463, 192.497)" fill="#a5d3ff"/>
        <g id="Group_45" data-name="Group 45" opacity="0.5">
          <path id="Path_37" data-name="Path 37" d="M1836.92,149.1c-.23-1.18-.49-2.37-.78-3.55A69.992,69.992,0,0,0,1791,96.24a68.672,68.672,0,0,0-19.59-3.71,70.043,70.043,0,0,0-56.95,25.34c-1.29,1.56-2.52,3.19-3.67,4.88-.79,1.14-1.54,2.31-2.26,3.5a69.9,69.9,0,0,0,59.68,105.96,70.125,70.125,0,0,0,16.9-2.08,69.366,69.366,0,0,0,34.58-20.43q2.07-2.235,3.93-4.67a69.494,69.494,0,0,0,13.3-55.93Zm-12.16,47.27a66.356,66.356,0,0,1-4.05,5.96q-1.845,2.445-3.92,4.69a65.908,65.908,0,0,1-104.88-78.73c.68-1.12,1.39-2.22,2.13-3.29,1.15-1.69,2.38-3.32,3.67-4.87a65.42,65.42,0,0,1,34.8-21.77,66.248,66.248,0,0,1,15.95-1.95c.99,0,1.98.02,2.97.08a64.477,64.477,0,0,1,18.1,3.43,66.3,66.3,0,0,1,30.93,22.03c.32.42.64.84.95,1.26a65.676,65.676,0,0,1,10.9,23.29c.31,1.26.59,2.53.82,3.8A65.329,65.329,0,0,1,1824.76,196.37Z" fill="#fff"/>
        </g>
        <circle id="Ellipse_2" data-name="Ellipse 2" cx="15.976" cy="15.976" r="15.976" transform="matrix(0.206, -0.979, 0.979, 0.206, 1811.324, 146.919)" fill="#ddebfc"/>
        <circle id="Ellipse_3" data-name="Ellipse 3" cx="9.974" cy="9.974" r="9.974" transform="matrix(0.517, -0.856, 0.856, 0.517, 1767.501, 97.83)" fill="#ddebfc"/>
      </g>
    </g>
  </g>
</svg>
