<svg xmlns="http://www.w3.org/2000/svg" xmlns:xlink="http://www.w3.org/1999/xlink" width="112" height="112" viewBox="0 0 112 112">
  <defs>
    <linearGradient id="linear-gradient" x1="1.336" y1="0.758" x2="1.665" y2="1.472" gradientUnits="objectBoundingBox">
      <stop offset="0" stop-color="#fff"/>
      <stop offset="1" stop-color="#fff" stop-opacity="0"/>
    </linearGradient>
  </defs>
  <g id="Planet_2" data-name="Planet 2" transform="translate(-1418.758 -65.351)">
    <g id="Group_15" data-name="Group 15" transform="translate(1418.758 65.351)">
      <g id="Group_14" data-name="Group 14">
        <g id="Group_13" data-name="Group 13">
          <path id="Path_602" data-name="Path 602" d="M1530.752,122.161a56,56,0,1,1-55.186-56.8A56,56,0,0,1,1530.752,122.161Z" transform="translate(-1418.758 -65.351)" fill="#196ea5"/>
          <g id="Group_12" data-name="Group 12" transform="translate(0.002 8.455)">
            <path id="Path_603" data-name="Path 603" d="M1530.6,179.569a44.768,44.768,0,0,1-12.6-1c-7.028-1.822-13.343-5.7-20.426-7.36a91.949,91.949,0,0,0-29.568-1.627c-9.662.937-18.663,5.095-28.3,6.156-6.745.742-13.589.384-20.4.067a56.705,56.705,0,0,0-.551,6.975c-.016,1.2.017,2.392.075,3.576l8.862.129c14.751.212,29,5.357,43.6,6.953,10.026,1.1,20.144.347,30.157-.549,4.307-.386,7.946-3.028,12.219-3.436,3.641-.346,7.3-.4,10.96-.48.431-.01,2.9.01,5.84,0,.146-1.51.248-3.034.27-4.577C1530.778,182.774,1530.717,181.165,1530.6,179.569Z" transform="translate(-1418.762 -136.048)" fill="#27aae1"/>
            <path id="Path_604" data-name="Path 604" d="M1532.164,253.8a45.981,45.981,0,0,0-7.462,1.833c-2.4,1.056-10.46,2.3-12.854,3.086a15.369,15.369,0,0,1-5.962.186l-18.167-.262c-.894-.013-10.7-1.792-13.061-3.188s-8.316-1.756-8.316-1.756l-19.321-3.005-18.941,1.955a55.949,55.949,0,0,0,8.053,14.25c5.731.14,11.359.977,14.512,1.022a85.453,85.453,0,0,1,13.975,1.838,27.94,27.94,0,0,0,8.037.39c1.49.021,14.9-.332,27.119-.7s7.148.1,9.539-.407,6.254.09,9.232.133a37.45,37.45,0,0,0,4.211-.057A55.94,55.94,0,0,0,1532.164,253.8Z" transform="translate(-1424.354 -185.012)" fill="#27aae1"/>
            <path id="Path_605" data-name="Path 605" d="M1438.043,105.684c8.779-2.371,23.065-4.852,36.8-1.2,21.959,5.844,28.234,4.48,36,2.846a70.532,70.532,0,0,1,14.327-1.828l9.434.136a56.221,56.221,0,0,0-9.354-11.851c-1.186-.14-2.324-.246-3.185-.259-2.681-.039-7.44-.4-11.905-.754s-13.382-1.648-14.871-1.668-1.484-.314-7.437-.691-15.756-2.263-19.922-2.615c-4.027-.339-6.946-1.2-11.172-1.315A56.268,56.268,0,0,0,1438.043,105.684Z" transform="translate(-1430.331 -86.489)" fill="#27aae1"/>
          </g>
          <path id="Path_606" data-name="Path 606" d="M1565.9,189.01c-.063,4.441-9.782,7.9-21.709,7.73s-21.541-3.912-21.477-8.353,9.783-7.9,21.709-7.73S1565.965,184.568,1565.9,189.01Z" transform="translate(-1481.131 -134.53)" fill="#5fb2e0"/>
          <path id="Path_607" data-name="Path 607" d="M1570.667,194.2c-.035,2.481-5.464,4.414-12.127,4.318s-12.033-2.186-12-4.667,5.464-4.414,12.127-4.317S1570.7,191.721,1570.667,194.2Z" transform="translate(-1495.429 -139.859)" fill="#a4dbf4"/>
          <path id="Path_608" data-name="Path 608" d="M1579.133,113.216c-.1,2.694-6.04,4.664-13.274,4.4s-13.019-2.66-12.921-5.354,6.042-4.665,13.275-4.4S1579.231,110.522,1579.133,113.216Z" transform="translate(-1499.265 -90.844)" fill="#5fb2e0"/>
          <path id="Path_609" data-name="Path 609" d="M1582.025,116.251c-.054,1.506-3.374,2.606-7.415,2.459s-7.272-1.486-7.218-2.99,3.373-2.606,7.416-2.459S1582.08,114.746,1582.025,116.251Z" transform="translate(-1507.938 -94.089)" fill="#a4dbf4"/>
          <path id="Path_610" data-name="Path 610" d="M1489.163,106.075c-.042,1.17-2.622,2.024-5.761,1.911s-5.648-1.156-5.606-2.324,2.621-2.025,5.762-1.91S1489.206,104.906,1489.163,106.075Z" transform="translate(-1454.181 -88.386)" fill="#a4dbf4"/>
          <path id="Path_611" data-name="Path 611" d="M1455.438,198.352c-.02,1.358-4.9,2.387-10.906,2.3s-10.856-1.256-10.836-2.614,4.9-2.386,10.908-2.3S1455.458,197,1455.438,198.352Z" transform="translate(-1427.72 -143.581)" fill="#5fb2e0"/>
          <path id="Path_612" data-name="Path 612" d="M1627.657,280.176c-.017,1.2-4.348,2.117-9.673,2.04s-9.63-1.113-9.612-2.318,4.349-2.118,9.674-2.04S1627.674,278.972,1627.657,280.176Z" transform="translate(-1532.526 -192.852)" fill="#5fb2e0"/>
          <path id="Path_613" data-name="Path 613" d="M1499.072,271.678c-.046,1.678-6.1,2.871-13.519,2.666s-13.4-1.732-13.354-3.41,6.1-2.87,13.522-2.665S1499.118,270,1499.072,271.678Z" transform="translate(-1450.822 -187.088)" fill="#a4dbf4"/>
        </g>
        <path id="Path_614" data-name="Path 614" d="M1530.611,134.819c-.295,1.2-.621,2.38-.991,3.544-1.547-.036-3.094-.036-4.639.044-3.5.184-6.768,1.262-10.212,1.76a107.041,107.041,0,0,1-14.869,1.339c-3.311,0-6.6-.44-9.895-.745-2.777-.256-5.784.079-8.5-.566a160.894,160.894,0,0,0-16.436-2.987c-6.733-.855-13.59-2.252-20.343-2.754-4.611-.341-9.472-.658-14.084-.67-2.753-.008-5.478.046-8.226.1-.241,0-.485.008-.728.012-.148-.649-.3-1.3-.422-1.957,4.712.008,9.58.579,14.148.876,9.278.6,18.542,1.45,27.838,1.7,4.84.131,9.377,1.43,14.141,2.106a50.493,50.493,0,0,0,9.8.788c5.291-.258,10.584.051,15.874.18,4.864.12,9.639-.4,14.486-.455C1521.969,137.08,1526.317,135.906,1530.611,134.819Zm-91.839-32.176a68.431,68.431,0,0,1,11.117-1.045q10.7.2,21.392.479c11.062.286,22.128-.852,33.114.98,3.78.631,7.412,2,11.264,2.306,4.44.346,9.528-.8,13.854.225a5.026,5.026,0,0,0,.517.082c-.422-1.45-.913-2.871-1.447-4.27a311.364,311.364,0,0,1-36.645-1.878c-6.42-.673-12.875-1.592-19.32-1.974-13.067-.771-26.152-.364-39.231-.516q-3.749-.043-7.5-.156a55.542,55.542,0,0,0-3.276,8.428C1428.005,104.626,1433.411,103.384,1438.772,102.643Zm20.509-34.654,8.784,2.005s6.1.237,6.7.245,9.667,1.034,10.558,1.2,8.61,2.06,9.2,2.07,5.355.523,6.4.539c.87.012,4.54.274,5.984.449a55.955,55.955,0,0,0-47.627-6.5Zm29.622,95.847c-.446-.006-4.921.376-5.519.516s-7.169,1.387-7.169,1.387-6.847-.4-7.294-.4-6.552-.095-8.337-.27-12.937-1.378-12.937-1.378l-8.161-.118a55.972,55.972,0,0,0,71.9,1.4c0-.036,0-.06,0-.06s-7.734-.707-8.182-.712l-6.85-.1C1495.6,164.083,1489.35,163.844,1488.9,163.836Z" transform="translate(-1420.26 -65.351)" fill="#0e577f"/>
      </g>
      <path id="Path_615" data-name="Path 615" d="M1503.688,80.684c7.936,13.511-1.106,33.559-20.2,44.778s-41.008,9.362-48.946-4.148,1.1-33.559,20.2-44.778S1495.747,67.173,1503.688,80.684Z" transform="translate(-1426.501 -67.66)" opacity="0.3" fill="url(#linear-gradient)"/>
      <path id="Path_616" data-name="Path 616" d="M1497.914,83.81c4.74,8.069-1.5,20.536-13.938,27.845s-26.366,6.692-31.106-1.377,1.5-20.536,13.936-27.846S1493.172,75.739,1497.914,83.81Z" transform="translate(-1438.272 -72.538)" fill="#fff" opacity="0.3"/>
    </g>
  </g>
</svg>
