<svg xmlns="http://www.w3.org/2000/svg" xmlns:xlink="http://www.w3.org/1999/xlink" width="239.276" height="457.682" viewBox="0 0 239.276 457.682">
  <defs>
    <radialGradient id="radial-gradient" cx="0.454" cy="0.249" fy="-0.5157144665718079" r="0.769" gradientUnits="objectBoundingBox">
      <stop offset="0.234" stop-color="#3abecc"/>
      <stop offset="0.289" stop-color="#3dbecb"/>
      <stop offset="0.343" stop-color="#49bfcb"/>
      <stop offset="0.397" stop-color="#5dc2cb"/>
      <stop offset="0.45" stop-color="#79c5ca"/>
      <stop offset="0.504" stop-color="#9dcac9"/>
      <stop offset="0.557" stop-color="#c8cfc9"/>
      <stop offset="0.61" stop-color="#fbd5c8"/>
      <stop offset="0.613" stop-color="#ffd6c8"/>
    </radialGradient>
    <linearGradient id="linear-gradient" y1="0.5" x2="1" y2="0.5" gradientUnits="objectBoundingBox">
      <stop offset="0" stop-color="aqua"/>
      <stop offset="0.808" stop-color="#2c4d93"/>
    </linearGradient>
    <linearGradient id="linear-gradient-3" x1="0.485" y1="0.57" x2="0.624" y2="-0.07" gradientUnits="objectBoundingBox">
      <stop offset="0.192" stop-color="#2c4d93"/>
      <stop offset="1" stop-color="aqua"/>
    </linearGradient>
    <linearGradient id="linear-gradient-4" x1="-76.886" y1="13.045" x2="-76.903" y2="13.79" gradientUnits="objectBoundingBox">
      <stop offset="0.249" stop-color="#e6fcff"/>
      <stop offset="1" stop-color="aqua"/>
    </linearGradient>
  </defs>
  <g id="User-03" transform="translate(-1483.586 -332.839)">
    <g id="Group_105" data-name="Group 105">
      <g id="Group_104" data-name="Group 104">
        <g id="Group_93" data-name="Group 93">
          <g id="Group_92" data-name="Group 92">
            <path id="Path_100" data-name="Path 100" d="M1694.77,758.035s-3.984,12.344-11.145,17.118c-8.443,5.627-10.281,1.24-11.35,11.722,0,0,1.189,4.008,13.392,3.619s15.575-2.45,17.382-3.611a51.164,51.164,0,0,0,4.706-3.752l2.148.418,6.135-3.212s-.584-17.376-3.909-24.385Z" fill="#58769e"/>
            <path id="Path_101" data-name="Path 101" d="M1712.129,755.952l-8.584,1.03a45.354,45.354,0,0,1,.526,29.185c1.707-1.269,3.684-3.036,3.684-3.036l2.148.418,6.135-3.212S1715.454,762.961,1712.129,755.952Z" fill="#526e94"/>
            <path id="Path_102" data-name="Path 102" d="M1715.91,777.767a10.762,10.762,0,0,1-6.114,2.907,14.756,14.756,0,0,1-1.79.276c-.1,0-.456.1-.554.108a15.927,15.927,0,0,0-1.591,1.008A42.529,42.529,0,0,1,1701.4,785c-2.483,1.26-13.855,3.285-17.135,3.111-4.017-.214-8.4-.606-11.792-2.882-.067.505-.132,1.05-.193,1.648,0,0,1.189,4.008,13.392,3.619s15.575-2.45,17.382-3.611a51.164,51.164,0,0,0,4.706-3.752l2.148.418,6.135-3.212S1716.005,779.352,1715.91,777.767Z" fill="#4d678a"/>
            <path id="Path_103" data-name="Path 103" d="M1616.1,751.127s-6.857,13.193-15.633,13.665c-5.191.279-11.634,1.769-10.794,10.68,0,0,4.218,2.776,23.167,1.073,7.308-.657,9.725-4.836,12.4-3.66,4.568,2.005,4.749,1.155,9.7.829s6.139-2.644,6.139-2.644-1.772-18.692-4.754-22.678C1632.773,743.639,1616.1,751.127,1616.1,751.127Z" fill="#58769e"/>
            <path id="Path_104" data-name="Path 104" d="M1636.328,748.392c-1.423-1.9-4.948-1.84-8.664-1.085a66.714,66.714,0,0,1,1.1,26.765c1.732.292,2.929-.144,6.181-.358,4.949-.326,6.139-2.644,6.139-2.644S1639.31,752.378,1636.328,748.392Z" fill="#526e94"/>
            <path id="Path_105" data-name="Path 105" d="M1631.159,771.344c-2.958-.022-6.426-.908-9.134-.289-2.734.624-5.307,1.656-8.1,2.066s-5.587.709-8.4.844a62.685,62.685,0,0,1-15.874-1.171,14.5,14.5,0,0,0,.019,2.678s4.218,2.776,23.167,1.073c7.308-.658,9.725-4.836,12.4-3.66,4.568,2.005,4.749,1.155,9.7.829s6.139-2.644,6.139-2.644-.043-.447-.125-1.213A26.469,26.469,0,0,1,1631.159,771.344Z" fill="#4d678a"/>
            <path id="Path_106" data-name="Path 106" d="M1696.384,664.808q-4.307-45.6-5.747-91.4c.5-8.926.948-32.049-6.3-47.518l-75.123,2.6a566.272,566.272,0,0,0-2.8,63.319c.529,54.132,5.011,128.1,8.409,160.109l22.889.025c1.095-43.289,6.022-86.42,12.489-129.3,4.3,20.433,8.985,40.783,13.919,61.045,6.781,26.4,20.443,52.408,27.666,78.5,0,0,9.368-.263,12.184-1.13,4.516-1.391,9.678-3.134,9.678-3.134C1708.557,726.944,1700.062,695.854,1696.384,664.808Z" fill="#042f61"/>
            <path id="Path_107" data-name="Path 107" d="M1650.594,623.4c-.084-.563-2.307-12.561-3.922-17.85-.465.918-.92,1.842-1.352,2.776-.246.532-12.619,39.613-13.477,81.271-.427,20.767-.916,41.593.418,62.334l5.457.006c1.095-43.289,6.022-86.42,12.489-129.3C1650.425,623.676,1650.611,623.546,1650.594,623.4Z" fill="#062854"/>
            <g id="Group_89" data-name="Group 89">
              <path id="Path_108" data-name="Path 108" d="M1603.158,551.884c.048,1.494,43.769,14.375,73.977,6.4,7.6-2.006,14.124-9.2,14.845-9.749,0-.034-3.172-26.308-3.2-27.369-.606-20.568.524-28.324,2.465-37.558,6.323-30.086,16.254-57.442,6.755-66.771a50.35,50.35,0,0,0-33.839-13.551c-15.028,0-47.543-6.266-51.915,10.457-1.32,5.047-9.94,18.312-9.734,34.155s1.264,34.263.931,49.7C1602.947,520.4,1602.925,544.656,1603.158,551.884Z" fill="#eba403"/>
            </g>
            <path id="Path_109" data-name="Path 109" d="M1671.115,394.475s3.14.5,3.045,3.007-5.264,7.823-5.264,7.823Z" fill="#eba403"/>
            <path id="Path_110" data-name="Path 110" d="M1675.164,380.895s-6.545,13.841-3.486,23.218c0,0-2.213,5.386-11.575,9.325-1.477.622-9.365,4.68-12.775,8.285-3.986,4.215-8.11,12.163-8.11,12.163s-1.415-11.845-1.44-19.465c-.017-5.245,2.522-8.853,2.625-9.615.62-4.6,1-13.9,1-13.9Z" fill="url(#radial-gradient)"/>
            <path id="Path_111" data-name="Path 111" d="M1641.845,393.238c.621-.967,1.185-1.964,1.729-2.972l-2.168.643s-.055,1.33-.157,3.231C1641.448,393.839,1641.65,393.541,1641.845,393.238Z" fill="#b16548"/>
            <g id="Group_90" data-name="Group 90">
              <path id="Path_112" data-name="Path 112" d="M1644.523,346.725s-16.824,40.943-11.13,42.985,14.955,4.654,23.379,3.378,16.3-6.621,16.3-6.621,12.768-20.107,6.591-28.805C1672.769,347.951,1653.1,338.336,1644.523,346.725Z" fill="#ffd6c8"/>
              <path id="Path_113" data-name="Path 113" d="M1672.163,388.2s8.484-7.414,11.072-12.105c5.133-9.3,9.025-22.876,1.808-30.613-9.644-10.34-24.627-14.251-36.591-12.049-7.064,1.3-5.05,14.2-4.342,14.311,7.2,1.081,14.213-2.024,23.6,5.365,2.111,1.662-.282,5.111,1.323,6.711s-2.963,9.666-2.963,9.666l3.445,3.253s8.924-1.691,7.963,2.038A64.39,64.39,0,0,1,1672.163,388.2Z" fill="#302559"/>
              <path id="Path_114" data-name="Path 114" d="M1650.412,378.6s-2.528-7.345-10.411-8.879c-3.8-.741-4.612.608-4.612.608l-4.764,12.705c-2.307,5.48,1.225,8.734,3.491,9.763,2.609,1.186,19.414,4.19,26.838-3.253,4.588-4.6,4.376-11.919,7.069-14.482a16.509,16.509,0,0,0,3.6-4.576l-5.551-1S1657.719,378.977,1650.412,378.6Z" fill="#302559"/>
              <path id="Path_115" data-name="Path 115" d="M1634.947,375.06l9.163,2.676S1636.218,385.677,1634.947,375.06Z" fill="#ffd6c8"/>
            </g>
            <path id="Path_116" data-name="Path 116" d="M1625.074,438.846c-.71-4.164-1.33-8.337-1.9-12.522a131.545,131.545,0,0,1-1.381-14.515,52.518,52.518,0,0,1,.3-7.567c-9.464,3.216-42.119,11.218-45.123,10.428-11.636-3.286-33.161-8.943-45.005-11.265-10.978-2.326-17.923,12.757-8.656,19.516,11.861,8.65,34.875,24.525,49.236,25.134,9.753.157,37.952-1.494,52.907-7.083Q1625.257,439.91,1625.074,438.846Z" fill="#eba403"/>
            <path id="Path_117" data-name="Path 117" d="M1672.954,372.367s2.758-2.951,5.178.882c2.568,4.069-4.015,9.359-6.6,10.283-3.7,1.323-6.048-1.2-5.443-2.189S1672.954,372.367,1672.954,372.367Z" fill="#ffd6c8"/>
            <path id="Path_118" data-name="Path 118" d="M1644.9,359.746l-5.965,6.46a1.9,1.9,0,0,0,.571,3.089c1.2.642,7.019,1.387,7.019,1.387Z" fill="#bb6a4d"/>
            <path id="Path_119" data-name="Path 119" d="M1661.99,409.842c-5.436,3.464-11.417,3.75-15.684,10.874-.88,1.469-6.374,11.031-7.088,13.17,0,0,10.527-16.061,13.224-15.139,1.28.438,8.183,9.425,8.183,9.425s15.2-11.715,16.426-17.694-1.75-13.516-2.064-14.486c-.476-1.471-3.537-2.276-3.537-2.276l-.221.9s2.213.674,2.213,1.535" fill="#eba403"/>
            <path id="Path_120" data-name="Path 120" d="M1641.093,396.853s-11.191,8.663-11.431,10.572-2.81,6.869-2.046,13.1c0,0,4.331-9.8,4.786-8.4s6.816,21.754,6.816,21.754-2.116-17.938-1.44-21.627a28.325,28.325,0,0,1,2.792-7.458l.238-3.451Z" fill="#eba403"/>
            <path id="Path_121" data-name="Path 121" d="M1722.672,493.615c-4.662-24.037-12.6-47.126-20.8-70.063-11.348-21.862-40.169-2.49-29.454,19.713,7.721,15.6,11.408,28.682,17.922,44.771a117.266,117.266,0,0,1-26.718,7.607c-11.4,1.612-11.626,14.8.043,15.393,14.532.8,29.833,3.031,43.922-.346C1716.593,509.291,1724.17,503.757,1722.672,493.615Z" fill="#eba403"/>
            <path id="Path_122" data-name="Path 122" d="M1661.83,493.607s-10.378-5.237-14.458-6.748c-4.175-1.546-15.9-1.062-16.295-1.094a9.856,9.856,0,0,0-1.291.017,23.672,23.672,0,0,0-4.1.746,50.667,50.667,0,0,0-7.324,2.546,2,2,0,0,0,1.166,3.8l.046-.008c2.393-.444,4.826-.956,7.169-1.325.585-.1,1.165-.176,1.728-.237a14.387,14.387,0,0,1,1.582-.119,4.179,4.179,0,0,1,.584.03l.759.11c.559.1,1.122.208,1.709.34.7.153,1.414.318,2.128.487-.127.009-.252.012-.381.024a15.565,15.565,0,0,0-2.4.734,3.591,3.591,0,0,0-1.593,2.5,3.887,3.887,0,0,0-.007,1.087,5.36,5.36,0,0,0,.4,1.42,7.515,7.515,0,0,0,.518,1,7.819,7.819,0,0,0-.638.83,4.2,4.2,0,0,0-.162,2.188c.131,1.6,1.932,3.366,3.562,3.946a2.082,2.082,0,0,0,.069,2.3c1.259,1.6,6.483,3.979,7.178,3.776l3.842-1.519a2,2,0,0,0,1.405-2.2c.96.046,6.214,1.951,6.462,1.985,7.367,1,10.7-1.769,12.894-5.659C1670.182,497.838,1661.83,493.607,1661.83,493.607Z" fill="#ffd6c8"/>
            <g id="Group_91" data-name="Group 91">
              <path id="Path_123" data-name="Path 123" d="M1484.945,389.946a1.87,1.87,0,0,1,2.521-.4l.014.01,10.972,4.811q.189-.507.422-1.024l-14.637-10.664a1.869,1.869,0,0,1,2.352-2.9l.023.018,14.626,9.434q.27-.4.549-.789c-2.045-2.09-4.135-4.158-6.237-6.213q-4.211-4.107-8.5-8.148l-.005-.005a1.869,1.869,0,0,1,2.486-2.789q4.538,3.828,8.992,7.725c2.1,1.842,4.194,3.7,6.268,5.592.18-.212.358-.418.531-.618q-2.171-2.694-4.459-5.324-1.922-2.209-3.9-4.381c-1.313-1.445-2.65-2.889-3.985-4.29l-.011-.012a1.868,1.868,0,0,1,2.633-2.65c1.46,1.373,2.876,2.745,4.291,4.141s2.81,2.8,4.195,4.23c1.89,1.953,3.751,3.943,5.57,5.993,1.709,1.557,4.8,4.206,5.963,4.15,3-.143,1.536-3.767,1.536-3.767s-1.834-4.145-2.477-6.188c-1.03-3.27,1.89-3.873,1.89-3.873s7.544,10.477,8.1,12.844c2.3,9.874,1.555,13.58,1.555,13.58.238,1.233,4.346,5.724,4.346,5.724-1.884,2.3-7.762,10.926-9.636,10.566-1.486-.286-5.388-5.044-5.388-5.044-6.348-.152-13.354-6.377-15.522-8.353l-14.758-8.763A1.868,1.868,0,0,1,1484.945,389.946Z" fill="#bb6a4d"/>
              <path id="Path_124" data-name="Path 124" d="M1526.338,396.8c-5.671,3.876-13.405,3.963-20.357,2.426-6.432-1.422-12.246-4.61-18.577-6.272a9.777,9.777,0,0,1-2.72-1.18,1.85,1.85,0,0,0,.582.792l14.758,8.763c2.168,1.976,9.174,8.2,15.522,8.353,0,0,3.9,4.758,5.388,5.044,1.874.36,7.752-8.266,9.636-10.566,0,0-4.108-4.491-4.346-5.724A10.06,10.06,0,0,0,1526.338,396.8Z" fill="#b16548"/>
              <path id="Path_125" data-name="Path 125" d="M1515.725,411.116s2.76-.672,6.811-4.872a25.746,25.746,0,0,0,5.018-6.811l5.6,6.082s-2.985,9.165-12.2,12.839Z" fill="#eba403"/>
            </g>
          </g>
        </g>
        <g id="Group_103" data-name="Group 103">
          <g id="Group_102" data-name="Group 102">
            <g id="Group_96" data-name="Group 96">
              <path id="Path_126" data-name="Path 126" d="M1650.536,357.738a1.422,1.422,0,0,0-1.561.832c-.187.4-1.682,4.131-1.472,4.41a2.476,2.476,0,0,1-.905-.061c-1.333-.366-.344-5.14.316-6.566a3.287,3.287,0,0,1,3.609-1.922,2.206,2.206,0,0,1,1.219,3.246,3.5,3.5,0,0,1-.565.844A.866.866,0,0,0,1650.536,357.738Z" fill="#310051"/>
              <g id="Group_95" data-name="Group 95">
                <g id="Group_94" data-name="Group 94">
                  <path id="Path_127" data-name="Path 127" d="M1640.994,364.526l-1.18,1.461a27.1,27.1,0,0,0,8.487,2.663l.6-1.69A26.968,26.968,0,0,1,1640.994,364.526Z" fill="#310051"/>
                </g>
              </g>
            </g>
            <g id="Group_101" data-name="Group 101">
              <g id="Group_98" data-name="Group 98">
                <g id="Group_97" data-name="Group 97">
                  <path id="Path_128" data-name="Path 128" d="M1667.1,362.282a1.422,1.422,0,0,0-1.562.831c-.187.4-1.682,4.132-1.472,4.411a2.477,2.477,0,0,1-.905-.062c-1.333-.365-.343-5.139.316-6.566a3.285,3.285,0,0,1,3.609-1.921,2.2,2.2,0,0,1,1.219,3.245,3.485,3.485,0,0,1-.565.844A.863.863,0,0,0,1667.1,362.282Z" fill="#310051"/>
                </g>
              </g>
              <g id="Group_100" data-name="Group 100">
                <g id="Group_99" data-name="Group 99">
                  <path id="Path_129" data-name="Path 129" d="M1666.183,371.436a45.877,45.877,0,0,1-9.006-2.471l-.041,2.109a28.645,28.645,0,0,0,8.761,2.069l.237-1.705-.119.853Z" fill="#310051"/>
                </g>
              </g>
            </g>
            <path id="Path_130" data-name="Path 130" d="M1671.772,378.067" fill="#180449"/>
            <path id="Path_131" data-name="Path 131" d="M1666.864,361.2h0a2.617,2.617,0,0,0,1.96,2.6l16.268,4.63a1.764,1.764,0,0,0,2.4-1.372h0a2.63,2.63,0,0,0-1.958-2.611l-16.271-4.612A1.758,1.758,0,0,0,1666.864,361.2Z" fill="url(#linear-gradient)"/>
            <path id="Path_132" data-name="Path 132" d="M1665.039,368.349h0a2.62,2.62,0,0,0,1.959,2.6l16.269,4.63a1.764,1.764,0,0,0,2.4-1.373h0a2.629,2.629,0,0,0-1.958-2.611l-16.27-4.611A1.757,1.757,0,0,0,1665.039,368.349Z" fill="url(#linear-gradient)"/>
            <path id="Path_133" data-name="Path 133" d="M1669.473,355.5l-21.451-5.885c-5.49-1.506-11.955,1.631-14.441,7.006h0c-2.486,5.376-.05,10.955,5.44,12.461l21.451,5.885c5.49,1.506,11.955-1.63,14.441-7.006h0C1677.4,362.585,1674.963,357.006,1669.473,355.5Z" fill="url(#linear-gradient-3)"/>
            <path id="Path_134" data-name="Path 134" d="M1661.984,356.723l-15.908-4.364a9.252,9.252,0,0,0-10.521,4.789h0a6.2,6.2,0,0,0,4.222,8.834l15.908,4.365a9.252,9.252,0,0,0,10.521-4.789h0A6.2,6.2,0,0,0,1661.984,356.723Z" fill="url(#linear-gradient-4)"/>
          </g>
        </g>
      </g>
    </g>
  </g>
</svg>
