<svg xmlns="http://www.w3.org/2000/svg" xmlns:xlink="http://www.w3.org/1999/xlink" width="307.478" height="637.675" viewBox="0 0 307.478 637.675">
  <defs>
    <radialGradient id="radial-gradient" cx="0.5" cy="0.5" fy="-0.3621838092803955" r="0.867" gradientUnits="objectBoundingBox">
      <stop offset="0.234" stop-color="#3abecc"/>
      <stop offset="0.377" stop-color="#81c6ca"/>
      <stop offset="0.613" stop-color="#ffd6c8"/>
    </radialGradient>
    <linearGradient id="linear-gradient" x1="0.004" y1="0.5" x2="0.989" y2="0.5" gradientUnits="objectBoundingBox">
      <stop offset="0.192" stop-color="#2c4d93"/>
      <stop offset="1" stop-color="aqua"/>
    </linearGradient>
    <linearGradient id="linear-gradient-2" x1="0" y1="0.5" x2="1" y2="0.5" xlink:href="#linear-gradient"/>
    <linearGradient id="linear-gradient-3" x1="0.5" y1="0.861" x2="0.5" y2="-0.139" xlink:href="#linear-gradient"/>
    <linearGradient id="linear-gradient-4" x1="2.398" y1="5.916" x2="2.398" y2="5.076" gradientUnits="objectBoundingBox">
      <stop offset="0.249" stop-color="#e6fcff"/>
      <stop offset="1" stop-color="aqua"/>
    </linearGradient>
  </defs>
  <g id="User-01" transform="translate(-191.99 -202.478)">
    <g id="Group_81" data-name="Group 81">
      <g id="Group_80" data-name="Group 80">
        <g id="Group_69" data-name="Group 69">
          <path id="Path_41" data-name="Path 41" d="M373.706,753.324s-.91,20.246-5.65,25.167c-1.621,1.682-7.68,8.64-6.583,11.245s33.735,18.627,33.735,18.627-2.88-18.9-2.331-24.112,3.84-20.516,3.84-20.516Z" fill="#ffd6c8"/>
          <path id="Path_42" data-name="Path 42" d="M404.533,824.294a38.276,38.276,0,0,1-6.445-14.075c-.679-3.28-3.977-19.8-3.977-19.8s-5.81-4.317-9.873.686c-1.248,1.535-12.524-4.612-13.714-8.777-1.646-5.759-3.428-5.759-3.428-5.759s-10.423,8.191-10.423,15.907c0,2.523,1,5.412,6.25,12.036,2.115,2.67,7.83,8.169,12.4,15.1,3.476,8.24,9.642,17.443,18.805,19.622,10.977,2.61,14.41-.894,15.617-4.114C411.257,831.094,407.762,828.567,404.533,824.294Z" fill="#fff"/>
          <path id="Path_43" data-name="Path 43" d="M364.355,798.993c.614-6.475,2.54-11.949,6.206-16.558-.011-.034-.027-.069-.037-.1-1.646-5.759-3.428-5.759-3.428-5.759s-10.423,8.192-10.423,15.907c0,2.523,1,5.412,6.249,12.036.368.464.851,1.02,1.412,1.648A41.656,41.656,0,0,1,364.355,798.993Z" fill="#f1f1f1"/>
          <path id="Path_44" data-name="Path 44" d="M401.257,835.126a29.157,29.157,0,0,1-13.466-6.317,16.906,16.906,0,0,1-2.123-2.2,21.054,21.054,0,0,1-2.16-2.177c-2.654-3.134-4.365-6.64-6.287-10.224-4.154-7.747-11.213-13.075-16.833-19.681-.179-.1-.351-.2-.533-.3a7.789,7.789,0,0,1-3.093-2.962,9.151,9.151,0,0,0-.089,1.211c0,2.523,1,5.411,6.25,12.036,2.115,2.67,7.83,8.169,12.4,15.1,3.476,8.24,9.642,17.443,18.805,19.622,10.977,2.61,14.41-.894,15.617-4.114.011-.028.015-.053.025-.081A21.13,21.13,0,0,1,401.257,835.126Z" fill="#e3e3e3"/>
          <path id="Path_45" data-name="Path 45" d="M406.291,495.776,343.3,512.353l35.125,129.079s-3.806,23.959-4.564,32.005c-2.03,21.567-3.987,92.873-3.987,92.873a25.259,25.259,0,0,0,12.61,8.855,33.91,33.91,0,0,0,14.235,1.407S420.3,676.026,423.411,641.946C424.278,632.453,406.291,495.776,406.291,495.776Z" fill="#00458e"/>
          <path id="Path_46" data-name="Path 46" d="M383.19,279.91c-.31-1.5-.65-2.99-1.06-4.48v-.01a70.205,70.205,0,0,0-2.54-7.8.123.123,0,0,1-.02-.03c-.42-1.07-.87-2.13-1.35-3.19-.74-1.63-1.55-3.24-2.45-4.83-.38-.68-.77-1.36-1.18-2.03-10.5-17.24-59.14-5.53-59.98-5.32h-.01s-.02.04-.07.12a.828.828,0,0,0-.07.13c-.05.08-.1.16-.14.24-.16.29-.39.7-.68,1.2-4.05,6.98-20.2,33.45-33.74,36.36-24.72,5.33-26.18,41.38-14.41,57.84a55.079,55.079,0,0,0,13.55,13.32.21.21,0,0,1,.06.04,59.327,59.327,0,0,0,7.26,4.27,70.237,70.237,0,0,0,15.4,5.5,84.285,84.285,0,0,0,17.61,2.19,58.03,58.03,0,0,0,6.45-.18c1.53-.15,9.57-4.68,18.77-10.12,4.73-2.79,9.76-5.83,14.37-8.64s8.78-5.37,11.79-7.23c1.1-.68,2.05-1.27,2.8-1.73,1.32-.82,2.07-1.29,2.07-1.29s.69-1.6,1.7-4.42v-.01c.43-1.24.94-2.73,1.47-4.42v-.01c.42-1.35.87-2.84,1.31-4.45.1-.37.21-.75.31-1.14C383.74,317.38,386.95,298.57,383.19,279.91Zm-1.71,14.67c-.27,8.02-1.75,13.96-4.61,18.65-1.22,2.02-3.97,3.51-7.49,4.44a40.154,40.154,0,0,1-13.57.87c-11.39-1.42-17.56-6.67-17.51-7.33-.54-.62-1.49-1.84-2.55-3.23a.01.01,0,0,0-.01-.01c-1.35-1.78-2.86-3.81-3.88-5.19-2.64-.18-5.26-3.04-7.11-6.34a22.61,22.61,0,0,1-2.36-5.98l4.2-.63.02.14a2.864,2.864,0,0,0,4.88,1.57,2.842,2.842,0,0,0,.79-2.32,15.313,15.313,0,0,0,6.83,1.58,16.5,16.5,0,0,0,2.41-.18l31.54-4.74a15.7,15.7,0,0,0,7.29-3.08A64.727,64.727,0,0,1,381.48,294.58Z" fill="#352478"/>
          <path id="Path_47" data-name="Path 47" d="M231.881,698.954s-8.665,15.495-14.115,16.057L207.2,720.689l1.658,16.869,18.557,9.658s9.4-16.387,10.463-19.448,13.31-10.146,13.31-10.146Z" fill="#ffd6c8"/>
          <path id="Path_48" data-name="Path 48" d="M414.818,571.693l-7.679-71.31s-77.78-33.692-104.315,8.011c-.78.089-1.206.142-1.206.142l-.3,2.4a52.961,52.961,0,0,0-4.648,11.735c-1.139,4.226-.7,16.892-.112,27.11l-9.223,75.271a288.864,288.864,0,0,0-22.649,20.474c-12.9,13.272-40.194,61.318-40.194,61.318s-.076,12.188,2.978,14.71c8.152,6.734,13.972,5.887,13.972,5.887s75.088-72.758,82.5-83.333c7.5-10.706,16.837-38.392,27.147-72.1l8.834-.2Z" fill="#00458e"/>
          <g id="Group_68" data-name="Group 68">
            <g id="Group_66" data-name="Group 66">
              <g id="Group_65" data-name="Group 65">
                <path id="Path_49" data-name="Path 49" d="M465.844,294c4.351-15.5,7.383-27.46,10.275-40.992,1.611-9.99,17.4-6.041,17.241,4.14-.039,14.448-.286,24.141-1.709,40.289C483.1,295.962,474.482,294.922,465.844,294Z" fill="#ffd6c8"/>
                <path id="Path_50" data-name="Path 50" d="M377.959,335.606c2.462-.679,24.477-6.355,27-6.007,20.7,2.855,41.937-1.48,52.018-4.057,5.411-16.982,10.241-39.023,15.026-58.525,6.745.691,15.674,1.623,22.429,1.2-.713,18.673-1.091,39.085-3.318,56.074-.93,11.639-5.434,28.156-13.561,35.933-11.709,11.2-75.5,19.911-87.111,20.537-16.147.87-9.861,1.832-17.47-20C370.272,351.112,368.275,338.157,377.959,335.606Z" fill="#e74b7d"/>
                <path id="Path_51" data-name="Path 51" d="M407.226,456.406c2.527,7.426,9.029,32.286,11.007,48.9-40.856,33.546-106.375,8.338-115.156,7.353,0,0,.586-25.013,7.387-48.293,5.858-20.051,5.526-33.742,2.763-42.147-1.493-4.542-9.84-26.684-11.326-48.64-1.263-18.668,2.108-28.643,2.108-28.643s10.329-8.316,28.951-12.361c8.464-1.839,22.432-2.478,31.26-1.61,13.536,1.33,33.178-2.12,33.178-2.12s.456,32.055,6.168,41.674c7.756,13.061,5.962,19.894,1.79,32.394C398.625,423.077,403.542,445.58,407.226,456.406Z" fill="#e74b7d"/>
                <g id="Group_64" data-name="Group 64">
                  <g id="Group_63" data-name="Group 63">
                    <path id="Path_52" data-name="Path 52" d="M496.9,228.2s3.257,12.435,2.441,16c-2.129,9.292-6.756,14.687-9.671,15.642s-13.6-2.764-13.6-2.764S468.04,243.582,468.5,239.5s.118-13.607.118-13.607Z" fill="#ffd6c8"/>
                    <path id="Path_53" data-name="Path 53" d="M489.16,239.625c.569-1.8,2.055-4.436,2.188-6.261-.183-1.568-.418-3.268-.544-4.845-.391-3.526,5.061-4.539,5.924-1.046.561,2.545,1.478,5.254.847,7.881a30.563,30.563,0,0,1-3.373,6.836C492.5,245.037,487.853,242.731,489.16,239.625Z" fill="#ffd6c8"/>
                    <path id="Path_54" data-name="Path 54" d="M489.83,243.979c1.245-3.393,3.71-7.894,3.2-11.533-1.01-3.782-2.145-11.1-7.585-9.127-3.643,1.567-2.147,5.665-1.369,8.535.178.652.339,1.3.472,1.852-.579,2.355-1.445,5.633-1.906,7.982C481.641,246.026,488.175,248.037,489.83,243.979Zm-5.181-10.743a.59.59,0,0,1,.025-.144C484.667,233.127,484.655,233.2,484.649,233.236Z" fill="#ffd6c8"/>
                    <g id="Group_62" data-name="Group 62">
                      <path id="Path_55" data-name="Path 55" d="M485.269,233.047c.073.082.078.218-.128.266l-.986-.137h0a1.854,1.854,0,0,1,.2-.058l.124-.025.063-.014.038-.008a.052.052,0,0,0,.021-.007s.007,0,.016-.011l.012-.008c.007-.03.106-.013.1.015C485.022,232.917,485.179,232.968,485.269,233.047Zm-.549.092.01-.006a.024.024,0,0,1,.014-.007.035.035,0,0,1,.018,0c.012,0,.022.007.034.01l.056.022.112.047c.058.029.133.061.176.088h0l-.986-.138c-.2,0-.184.09-.1.123.1.031.264.034.567-.157C484.615,233.152,484.713,233.168,484.72,233.139Z" fill="#d47d47"/>
                    </g>
                    <path id="Path_56" data-name="Path 56" d="M484.006,244.142c.651-3.077,1.242-6.327,1.637-9.442a31.234,31.234,0,0,0-1.232-6.223c-.833-3.287-1.967-8.63-6.53-7.178-4.122,1.448-1.563,7.87-.926,11,.246,1.109-.447,8.12-.449,11.023C476.388,247.762,483.182,248.439,484.006,244.142Z" fill="#ffd6c8"/>
                    <path id="Path_57" data-name="Path 57" d="M469.18,233.726c-.261-3.958-.788-9.9-.837-13.811a22.948,22.948,0,0,1,.873-4.516c.512-2.2,1.92-8.009,2.452-10.274.374-1.556,1.4-2.909,2.988-2.6,4.5.733,1.7,8.085,1.587,10.7-.334,1.876-.973,4.74-1.236,6.593.251,3.651,1.026,9.475,1.464,13.157C477.178,237.816,469.479,238.626,469.18,233.726Z" fill="#ffd6c8"/>
                    <path id="Path_58" data-name="Path 58" d="M468.625,247.364c-1.372-4.115.932-10.808.932-10.808l7.795-7.648s2.932,1.019,3.314,3.839a8.59,8.59,0,0,1-1.93,6.789,22.684,22.684,0,0,0-2.269,2.777s-2.016,2.918-.342,4.555,8.685,10.792,3.645,10.262c-3.91-.412-4.487-.633-7.861-4.319A22.348,22.348,0,0,1,468.625,247.364Z" fill="#ffd6c8"/>
                  </g>
                </g>
              </g>
            </g>
            <g id="Group_67" data-name="Group 67">
              <path id="Path_59" data-name="Path 59" d="M376.13,330.83s-.01.12-.03.34c-.05.78-.23,2.85-.61,5.45a61.916,61.916,0,0,1-1.94,8.91,24.483,24.483,0,0,1-2.54,5.84,7.278,7.278,0,0,1-3.76,3.28,13.508,13.508,0,0,1-8.29-.16c-8.01-2.55-16.45-11.39-26-21.91a1.794,1.794,0,0,0,.48-.09.01.01,0,0,1,.01-.01c1.07-.34,3.53-1.87,3.69-8.67.04-1.43-.55-9.53-1.39-15.83,1.06,1.39,2.01,2.61,2.55,3.23-.05.66,6.12,5.91,17.51,7.33a40.154,40.154,0,0,0,13.57-.87c.66,5.24,1.37,10.51,1.68,11.45C371.9,331.72,376.13,330.83,376.13,330.83Z" fill="#ffd6c8"/>
              <path id="Path_60" data-name="Path 60" d="M376.13,330.83s-.01.12-.03.34c-.05.78-.23,2.85-.61,5.45a61.916,61.916,0,0,1-1.94,8.91,24.483,24.483,0,0,1-2.54,5.84,7.278,7.278,0,0,1-3.76,3.28,13.508,13.508,0,0,1-8.29-.16c-8.01-2.55-16.45-11.39-26-21.91a1.794,1.794,0,0,0,.48-.09.01.01,0,0,1,.01-.01c1.07-.34,3.53-1.87,3.69-8.67.04-1.43-.55-9.53-1.39-15.83,1.06,1.39,2.01,2.61,2.55,3.23-.05.66,6.12,5.91,17.51,7.33a40.154,40.154,0,0,0,13.57-.87c.66,5.24,1.37,10.51,1.68,11.45C371.9,331.72,376.13,330.83,376.13,330.83Z" fill="url(#radial-gradient)"/>
              <path id="Path_61" data-name="Path 61" d="M381.48,294.58c-.27,8.02-1.75,13.96-4.61,18.65-1.22,2.02-3.97,3.51-7.49,4.44a40.154,40.154,0,0,1-13.57.87c-11.39-1.42-17.56-6.67-17.51-7.33-.54-.62-1.49-1.84-2.55-3.23a.01.01,0,0,0-.01-.01c-1.35-1.78-2.86-3.81-3.88-5.19-2.64-.18-5.26-3.04-7.11-6.34a22.61,22.61,0,0,1-2.36-5.98c-.41-1.85-.36-3.37.29-4.06a8.429,8.429,0,0,1,3.07-2.17h.01a5.129,5.129,0,0,1,.78-.22,4.862,4.862,0,0,1,3.08.42c-.3-4.72-.64-10-.99-15.25-.02-.27-.02-.53-.02-.79a10.98,10.98,0,0,1,.05-1.52c1.21-14.16,22.8-19.86,32.69-17.17a19.256,19.256,0,0,1,11.64,9.33c.5.86.95,1.72,1.34,2.54q.39.84.72,1.62c.57,1.33,1,2.51,1.36,3.38a85.235,85.235,0,0,1,3.21,12.28c.26,1.3.5,2.63.73,3.95A64.727,64.727,0,0,1,381.48,294.58Z" fill="#ffd6c8"/>
              <path id="Path_62" data-name="Path 62" d="M380,265.69a9.9,9.9,0,0,1-.41,1.93.123.123,0,0,1-.02-.03,40.97,40.97,0,0,0-3.35-4.08l-.01-.01c-.56-.61-1.19-1.25-1.88-1.93-.88-.84-1.86-1.73-2.94-2.61a42.183,42.183,0,0,0-11.55-6.86,89.622,89.622,0,0,1-15.38,10.73l-.01.01c-1.62.89-3.33,1.75-5.09,2.54a7.113,7.113,0,0,0-2.83,2.21,7.219,7.219,0,0,0-1.28,2.81,14.971,14.971,0,0,0,.77,7.95c.62,1.87,3.016,3.954,1.616,6.384-.14.24-4.624-2.254-4.6-2.45,1.17-8.449.548-.876.548-.876l.464-1.793c.983-10.073-2.314,1.855-3.156,1.852-1.421-.005.121-1.119-.079-2.525l-2.131-5.84-10.654,7.1a170.4,170.4,0,0,0,6.719,16.235c-4.37-3.41-9.75-8.59-12.51-14.92-3.35-7.67-3.03-19.18,1.4-27.61.22-.41.44-.81.68-1.2.04-.08.09-.16.14-.24a.828.828,0,0,1,.07-.13c.05-.08.07-.12.07-.12h.01a22.494,22.494,0,0,1,2.36-3.17c10.73-11.87,30.16-23.74,55.89-5.07,3.68,2.66,6.59,11.04,7.15,17.56A21.2,21.2,0,0,1,380,265.69Z" fill="#352478"/>
            </g>
          </g>
          <path id="Path_63" data-name="Path 63" d="M319.364,373.449c-13.2,22.868-26.946,43.424-40.15,66.336-1.789,3.146-21.263,56.328-28.725,79.373a10.11,10.11,0,0,1-12.713,6.6c-4.6-1.463-4.013-7.83-3.6-12.442.9-10.381,5.314-67.22,11.894-84.147,12.347-27.036,21.861-50.681,37.942-75.618,5.742-8.687,24.605-20.2,32.166-14.887C323.929,344.118,324.766,364.232,319.364,373.449Z" fill="#e08d5b"/>
          <path id="Path_64" data-name="Path 64" d="M214.507,714.854s-16.656,4.793-17.257,12.636c-.336,4.391-2.755,23.123-3.838,26.91-3.072,10.745-.987,20.82,4.529,28.038s12.665,10.851,17.866,9.267c2.557-.779,4.639-4.6,4.694-10.211.057-5.8-1.942-13.413-.891-15.968,2.069-5.027,13.6-22.621,12.472-24.3-1.389-2.074-7.057-5.058-11.2-4.465-3.441.492-8.331,2.7-8.817-4.547a42.923,42.923,0,0,1,.435-10.765c.368-1.567,5.266-6.433,6.119-6.612C218.619,714.832,218.127,714.242,214.507,714.854Z" fill="#fff"/>
          <path id="Path_65" data-name="Path 65" d="M196.4,759.663c.336-5.273,1.531-10.409,2.2-15.635.377-2.932.172-5.914.257-8.863.146-5.1.754-10.018,2.867-14.238-2.428,1.834-4.286,4.039-4.48,6.563-.336,4.391-2.755,23.123-3.838,26.91-3.072,10.745-.987,20.82,4.529,28.038s12.665,10.851,17.866,9.267a4.052,4.052,0,0,0,1.254-.662C203.551,788.915,195.6,772.364,196.4,759.663Z" fill="#e3e3e3"/>
          <path id="Path_66" data-name="Path 66" d="M250.084,509.666c-4.286.133-11.8-4.26-15.751-1.861-5.6,3.4-11.481,17.029-12.912,26.434-.561,1.736-1.071,3.436-1.555,5.169q-.845,3.049-1.553,6.14t-1.222,6.247c-.331,2.107-.587,4.238-.729,6.4a2.246,2.246,0,0,0,4.472.415l.005-.042c.234-1.958.574-3.924.989-5.887q.651-2.943,1.473-5.866.77-2.7,1.657-5.365.656.4,1.39.768c-.183.752-.366,1.5-.542,2.26q-.719,3.121-1.331,6.273a103.5,103.5,0,0,0-1.738,12.819,2.247,2.247,0,0,0,4.474.4l0-.027A98.821,98.821,0,0,1,229.5,551.85q.75-3.012,1.6-6.005c.154-.538.318-1.078.477-1.618.426.123.855.241,1.289.35-.057.569-.118,1.135-.171,1.706q-.311,3.332-.524,6.675A118.566,118.566,0,0,0,232,566.463a2.246,2.246,0,0,0,4.489-.128v-.03a114.259,114.259,0,0,1,.812-12.9q.365-3.241.832-6.476c.066-.46.139-.921.208-1.382.446.044.888.081,1.323.106-.078,1.751-.14,3.5-.162,5.259a90.919,90.919,0,0,0,.718,13.724,2.246,2.246,0,0,0,4.461-.52l0-.041a86.661,86.661,0,0,1-.033-12.974c.12-1.937.286-3.875.475-5.812.162-.892,2.34-12.616,4.743-11.824,3.834,1.264-.072,10.212,2.1,15.08,1.275,2.852,4.35,1.442,4.35,1.442s.741-10.78,1.83-15.445C259.474,528.871,254.369,509.533,250.084,509.666Z" fill="#ffd6c8"/>
          <path id="Path_67" data-name="Path 67" d="M316.174,338.669c-7.561-5.313-26.424,6.2-32.166,14.887-16.081,24.936-26.871,46.668-39.218,73.7C239.463,440.966,234.6,484,231.983,504.673c2.35,3.132,17.831,8.373,23.448,5.325,8.676-25.551,22.191-67.414,23.783-70.213,13.2-22.912,26.954-43.468,40.15-66.336C324.766,364.232,323.929,344.118,316.174,338.669Z" fill="#e74b7d"/>
        </g>
        <g id="Group_79" data-name="Group 79">
          <g id="Group_78" data-name="Group 78">
            <g id="Group_72" data-name="Group 72">
              <path id="Path_68" data-name="Path 68" d="M363.514,278.049a1.552,1.552,0,0,0,1.3-1.766c-.083-.556-1.139-5.554-1.621-5.757a3.553,3.553,0,0,1,1.183-.411c1.96-.295,4.472,5.617,4.767,7.576a3.588,3.588,0,1,1-7.1,1.066,3.536,3.536,0,0,1,.045-1.251A1.546,1.546,0,0,0,363.514,278.049Z" fill="#310051"/>
              <g id="Group_71" data-name="Group 71">
                <g id="Group_70" data-name="Group 70">
                  <path id="Path_69" data-name="Path 69" d="M370.148,265.33l.33-2.275a44.766,44.766,0,0,0-12.739,1.5l.572,2.228A44.423,44.423,0,0,1,370.148,265.33Z" fill="#310051"/>
                </g>
              </g>
            </g>
            <g id="Group_77" data-name="Group 77">
              <g id="Group_74" data-name="Group 74">
                <g id="Group_73" data-name="Group 73">
                  <path id="Path_70" data-name="Path 70" d="M339.168,281.7a1.553,1.553,0,0,0,1.3-1.766c-.083-.555-1.139-5.554-1.621-5.757a3.567,3.567,0,0,1,1.183-.411c1.96-.294,4.472,5.617,4.766,7.577a3.588,3.588,0,1,1-7.051-.186A1.544,1.544,0,0,0,339.168,281.7Z" fill="#310051"/>
                </g>
              </g>
              <g id="Group_76" data-name="Group 76">
                <g id="Group_75" data-name="Group 75">
                  <path id="Path_71" data-name="Path 71" d="M333.116,270.891a73.475,73.475,0,0,1,13.241-1.988l-1.607-2.4a44.752,44.752,0,0,0-12.617,2.312l1.043,2.05-.521-1.025Z" fill="#310051"/>
                </g>
              </g>
            </g>
            <path id="Path_72" data-name="Path 72" d="M320.89,266.374" fill="#180449"/>
            <path id="Path_73" data-name="Path 73" d="M313.728,292.52a2.864,2.864,0,0,1,1-5.028l.137-.036,5.466-1.478,3.006-.821h.01l3.308-.9.02,0,8.384-2.279.253-.07a2.812,2.812,0,0,1,.394-.076,2.881,2.881,0,0,1,1.232,5.6h-.01c-.038.014-.078.019-.117.033l-19.836,5.347-.752.208c-.029,0-.068.018-.1.021A2.838,2.838,0,0,1,313.728,292.52Z" fill="url(#linear-gradient)"/>
            <path id="Path_74" data-name="Path 74" d="M314.082,282.244a2.865,2.865,0,0,1,.669-5.083l.135-.044,5.358-1.831,2.946-1.014.01,0,3.244-1.11.019,0,8.218-2.819.249-.086a2.86,2.86,0,0,1,.388-.1,2.881,2.881,0,0,1,1.592,5.5l-.01,0c-.037.017-.077.024-.114.041l-19.448,6.624-.736.256c-.029.006-.067.023-.1.028A2.841,2.841,0,0,1,314.082,282.244Z" fill="url(#linear-gradient-2)"/>
            <path id="Path_75" data-name="Path 75" d="M383.19,279.91a14.39,14.39,0,0,1-2.84,2.89,15.7,15.7,0,0,1-7.29,3.08l-31.54,4.74a16.5,16.5,0,0,1-2.41.18,15.313,15.313,0,0,1-6.83-1.58c-.16-.07-.33-.16-.49-.25a13.621,13.621,0,0,1-5.25-4.96,13.025,13.025,0,0,1-1.23-2.74v-.01c-.01-.04-.02-.07-.03-.11v-.01a12.016,12.016,0,0,1-.51-3.39v-.02a.662.662,0,0,1-.01-.14v-.01a13.245,13.245,0,0,1,3.85-9.19c.16-.17.32-.33.49-.48v-.01a15.633,15.633,0,0,1,8.4-4.02l6.95-1.04.01-.01,24.58-3.69a15.693,15.693,0,0,1,2.35-.18h.06c.52,0,1.03.03,1.54.07a16.077,16.077,0,0,1,2.78.54,14.557,14.557,0,0,1,4.24,1.97,12.7,12.7,0,0,1,3.18,18.37Z" fill="url(#linear-gradient-3)"/>
            <path id="Path_76" data-name="Path 76" d="M349.952,285.265l23.387-3.512c5.986-.9,10.209-5.816,9.433-10.984h0c-.776-5.167-6.257-8.627-12.243-7.728l-23.387,3.512c-5.986.9-10.209,5.817-9.433,10.984h0C338.485,282.7,343.966,286.164,349.952,285.265Z" fill="url(#linear-gradient-4)"/>
          </g>
        </g>
      </g>
    </g>
  </g>
</svg>
