<svg xmlns="http://www.w3.org/2000/svg" xmlns:xlink="http://www.w3.org/1999/xlink" width="1861.076" height="1080" viewBox="0 0 1861.076 1080">
  <defs>
    <linearGradient id="linear-gradient" x1="0.5" y1="1" x2="0.5" gradientUnits="objectBoundingBox">
      <stop offset="0" stop-color="#6c67eb"/>
      <stop offset="0.443" stop-color="#8efcf8"/>
      <stop offset="1" stop-color="#e6378f"/>
    </linearGradient>
    <linearGradient id="linear-gradient-2" x1="0.5" y1="1.015" x2="0.522" y2="0.208" gradientUnits="objectBoundingBox">
      <stop offset="0.161" stop-color="#f7747f"/>
      <stop offset="1" stop-color="#f4a36c"/>
    </linearGradient>
    <radialGradient id="radial-gradient" cx="0.235" cy="0.009" r="1.189" gradientUnits="objectBoundingBox">
      <stop offset="0.161" stop-color="#3abecc"/>
      <stop offset="0.613" stop-color="#ffd6c8"/>
    </radialGradient>
    <radialGradient id="radial-gradient-2" cx="0.235" cy="0.009" r="1.232" gradientUnits="objectBoundingBox">
      <stop offset="0.299" stop-color="#ffd6c8"/>
      <stop offset="0.504" stop-color="#ffd6c8"/>
      <stop offset="0.993" stop-color="#8cfdf4"/>
    </radialGradient>
    <linearGradient id="linear-gradient-3" x1="0.545" y1="-0.072" x2="0.508" y2="0.559" gradientUnits="objectBoundingBox">
      <stop offset="0.249" stop-color="#e6fcff"/>
      <stop offset="1" stop-color="aqua"/>
    </linearGradient>
    <linearGradient id="linear-gradient-4" x1="0.875" y1="0.382" x2="-0.125" y2="0.382" xlink:href="#linear-gradient-2"/>
    <linearGradient id="linear-gradient-5" x1="0.876" y1="0.374" x2="-0.124" y2="0.374" xlink:href="#linear-gradient-2"/>
    <linearGradient id="linear-gradient-6" x1="0.489" y1="0.867" x2="0.525" y2="0.152" gradientUnits="objectBoundingBox">
      <stop offset="0.192" stop-color="#2c4d93"/>
      <stop offset="1" stop-color="aqua"/>
    </linearGradient>
  </defs>
  <g id="Group_3897" data-name="Group 3897" transform="translate(0)">
    <g id="Cliped_BG" data-name="Cliped BG">
      <path id="Path_146" data-name="Path 146" d="M1363.332,0c120.789,52.2,165.557,97.811,190.9,180.589s59.972,97.983,121.634,97.983,227.219,39.7,243.267,248.335S1725.7,848.731,1584.638,794.672c-18.583-8.447-33.788-16.894-41.39-24.5s-61.661-19.428-108.119,16.049-101.361,48.147-151.2,48.147-70.953-10.136-105.585-28.719-99.672-39.7-169.781-27.875-95.167,55-204.412,55-174.942-47.677-215.862-94.6-50.681-72.079-65.7-93.478-69.826-92.727-165.557-93.29c-38.855,0-83.8,6.758-108.911,17.457V0Z" transform="translate(-248.126)" fill="url(#linear-gradient)"/>
    </g>
    <g id="Lady" transform="translate(1145.512 363.707)">
      <g id="Group_128" data-name="Group 128" transform="translate(0 0.001)">
        <path id="Path_147" data-name="Path 147" d="M273.264,896.869C226.2,910.759,188.2,922.515,147.892,954.96,95.1,997.448,70.263,1049.615,58.924,1080H774.488c-4.248-29.034-15.887-77.373-52.76-120.356-55.3-64.461-132.553-76.052-197.852-85.8C413.308,857.345,327.225,880.943,273.264,896.869Z" transform="translate(-58.924 -363.707)" fill="url(#linear-gradient-2)"/>
        <path id="Path_148" data-name="Path 148" d="M302.1,668.823a401.955,401.955,0,0,1,16.492,63.5c4.143,23.785,7.743,43.327,5.773,69.269-1.786,23.514-4.508,59.34-31.043,82.888a79.185,79.185,0,0,1-21.735,13.629c.021,8.765,1.029,47.468,29.688,70.882,19.389,15.841,41.276,16.384,65.706,16.633,74.244.759,129.088-39.709,145.4-52.092a272.727,272.727,0,0,0,51.952-51.951,184.59,184.59,0,0,1-28.862-28.862c-41.917-52.471-42.582-112.981-42.056-131.117C495,666.838,518.2,627.3,529.7,610.274Z" transform="translate(-61.433 -363.708)" fill="url(#radial-gradient)"/>
        <path id="Path_149" data-name="Path 149" d="M283.268,522.864c-9.058,13.051-9.434,29.712-10.72,62.672a284.8,284.8,0,0,0,12.37,93.183c3.406,11.192,5.11,16.787,7.175,19.516,26.515,35.016,124.078,14.878,188.262-29.412a240.008,240.008,0,0,0,42.881-37.933,23.224,23.224,0,0,0,7.421,8.246c13.1,8.659,34.505,1.382,46.172-9.719,16.789-15.974,17.013-43.295,8.795-61.566-7.808-17.362-23.156-26.366-39.944-34.423-83.752-40.191-177.475-44.374-177.475-44.374h0C335.122,492.884,301.363,496.792,283.268,522.864Z" transform="translate(-88.781 -363.708)" fill="url(#radial-gradient-2)"/>
        <g id="Group_125" data-name="Group 125" transform="translate(183.572 125.346)">
          <path id="Path_150" data-name="Path 150" d="M284.919,691.825a388.314,388.314,0,0,1-12.37-109.219c.932-28,1.391-45.958,5.02-59.549.044-.064.085-.129.129-.193,18.095-26.072,51.854-29.98,84.937-33.81,0,0,93.723,4.183,177.475,44.374,16.788,8.057,32.136,17.061,39.944,34.423,8.218,18.271,7.994,45.592-8.795,61.566-11.666,11.1-33.073,18.377-46.169,9.721a32.389,32.389,0,0,1-1.853-3.372c-.29.381-.6.781-.905,1.181a24.578,24.578,0,0,1-4.666-6.057,240.008,240.008,0,0,1-42.881,37.933c-64.107,44.237-161.51,64.377-188.162,29.535C286.1,696.384,285.539,694.216,284.919,691.825Z" transform="translate(-266.782 -489.054)" fill="none"/>
          <path id="Path_151" data-name="Path 151" d="M589.212,691.825c.621,2.391,1.184,4.559,1.7,6.533-.032-.042-.068-.081-.1-.123-2.065-2.729-3.769-8.324-7.175-19.516a284.8,284.8,0,0,1-12.37-93.183c1.279-32.8,1.662-49.456,10.591-62.479-3.629,13.591-4.088,31.549-5.02,59.549A388.314,388.314,0,0,0,589.212,691.825Z" transform="translate(-571.075 -489.054)" fill="#feffff"/>
          <path id="Path_152" data-name="Path 152" d="M335.366,639.138l0,0a20.873,20.873,0,0,1-2.755-2.189c.307-.4.615-.8.9-1.181A32.39,32.39,0,0,0,335.366,639.138Z" transform="translate(-77.058 -489.054)" fill="#feffff"/>
        </g>
        <path id="Path_153" data-name="Path 153" d="M311.223,574.959c3.345-.193,10.684,15.364,4.567,26.488a16.686,16.686,0,0,1-9.16,7.895c-7.326,2.331-16.055-1.512-16.147-4.516-.068-2.225,4.646-2.4,9.562-6.422C310.549,589.823,308,575.144,311.223,574.959Z" transform="translate(165.859 -363.708)" fill="#70c5cb"/>
        <path id="Path_154" data-name="Path 154" d="M621.64,432.154C597.4,363.932,469.723,363.735,453.414,363.71c-31.449-.048-67.306.425-95.832,26.259-24.488,22.178-31.287,51.918-34.187,64.6-2.705,11.833-11.1,48.567,3.026,57.574,13.7,8.736,29.843-20.245,66.865-28.377,45.581-10.012,64.494,23.663,151.553,35.058,34.975,4.578,47.442,1.436,56.844-5.186C624.257,497.74,631.406,459.645,621.64,432.154Z" transform="translate(-169.867 -363.708)" fill="url(#linear-gradient-3)"/>
        <path id="Path_155" data-name="Path 155" d="M357.846,454.57c2.9-12.683,9.7-42.423,34.187-64.6,28.526-25.834,64.383-26.307,95.832-26.259,12.588.019,91.532.143,138.04,31.573-47.016-27.3-119.425-27.418-131.435-27.437-31.449-.048-67.306.425-95.832,26.259-24.488,22.178-31.287,51.918-34.187,64.6-2.487,10.882-9.783,42.821.045,54.89a10.124,10.124,0,0,1-3.624-1.452C346.749,503.137,355.141,466.4,357.846,454.57Z" transform="translate(-204.317 -363.708)" fill="#feffff"/>
        <path id="Path_156" data-name="Path 156" d="M337.165,537.716a53.9,53.9,0,0,1-8.1,48.825,208.362,208.362,0,0,0-89.051-55.52q11.543-21.988,23.087-43.976a150.1,150.1,0,0,1,74.066,50.671Z" transform="translate(194.717 -363.708)" fill="#2c4d93"/>
        <path id="Path_157" data-name="Path 157" d="M557.449,530.139c-1.6-2.669-13.6,6.586-29.648,2.447-10.233-2.639-14.605-8.784-16.484-7.207-2.978,2.5,2.808,22.311,16.208,25.888C543.583,555.552,559.512,533.577,557.449,530.139Z" transform="translate(-293.694 -363.708)" fill="#70c5cb"/>
        <g id="Group_126" data-name="Group 126" transform="translate(208.406 213.328)">
          <path id="Path_158" data-name="Path 158" d="M547.675,589.641c8.411,1.194,11.636,3.147,13.595,5.795a14.515,14.515,0,0,1,1.488,13.745c-5.541,12.6-35.887,17.621-46.869,4.318-4.023-4.874-6.026-12.909-2.992-18.42C518.2,585.455,536.37,588.035,547.675,589.641Z" transform="translate(-509.189 -577.036)" fill="#d34f5e"/>
          <path id="Path_159" data-name="Path 159" d="M523.508,593.875a42.453,42.453,0,0,0-12.866,3.142,31.057,31.057,0,0,0-8.541,5.538c-1.355,1.241-2.044,2.1-2.5,1.89-1.208-.555.049-8.326,3.7-14.312,6.176-10.131,17.6-12.5,18.134-12.612,10.361-2.079,18.474,2.987,23.877,6.362,13.49,8.425,21.863,22.826,19.908,25.045C562.626,611.876,542.822,592.156,523.508,593.875Z" transform="translate(-498.583 -577.036)" fill="url(#linear-gradient-4)"/>
          <path id="Path_160" data-name="Path 160" d="M559.109,603.234c-6.9-1.13-10.44,3.83-19.306,7.388-3.527,1.415-12.513,4.938-21.66,2.437-8.053-2.2-13.287-8.282-16.213-12.76a2.4,2.4,0,0,0-1.672.384c-3.089,2.337.381,15.986,8.909,23.235,6.07,5.161,13.211,5.8,16.429,6.056,21.225,1.664,42.291-16.222,40.362-22.941C565.152,604.225,560.352,603.438,559.109,603.234Z" transform="translate(-499.147 -577.036)" fill="url(#linear-gradient-5)"/>
        </g>
        <path id="Path_161" data-name="Path 161" d="M613.377,428.856c19.611,37.558,15.657,80-7.151,103.814-9.944,10.382-31.218,24.994-57.168,25.286-20.919.236-25.588-7.988-80.256-32.982-44.3-20.253-60.71-23.757-78.057-20.888-7.147,1.182-22.1,3.868-34.187,16.386a54.754,54.754,0,0,0-13.41,24.392,33.417,33.417,0,0,1-31.56-12.194c-10.532-13.634-5.11-29.865-4.4-31.882,2.236-6.331,6.979-13.605,20.888-21.988,24.376-14.69,50.073-16.651,66.134-16.737,10.334-.055,34.966.823,81.368,14.614,57.348,17.045,79.088,34.041,95.318,22.356,9.289-6.687,11.139-18.489,13.168-31.723,5.849-38.159-12.951-69.349-21.225-81.414a155.5,155.5,0,0,1,50.535,42.96Z" transform="translate(-156.656 -363.708)" fill="url(#linear-gradient-6)"/>
        <g id="Group_127" data-name="Group 127" transform="translate(148.508 22.188)">
          <path id="Path_162" data-name="Path 162" d="M351.166,391.58c9.062,14.651,22.607,42.553,17.522,75.73-2.029,13.234-3.879,25.036-13.168,31.723-4.554,3.279-9.542,4.3-15.629,3.694a19.812,19.812,0,0,0,9.552-3.694c9.289-6.687,11.139-18.489,13.168-31.723,5.849-38.159-12.951-69.349-21.225-81.414C344.5,387.554,347.778,389.445,351.166,391.58Z" transform="translate(-83.708 -385.896)" fill="#feffff"/>
          <path id="Path_163" data-name="Path 163" d="M450.732,524.974c51.142,23.382,58.527,32.086,76.394,32.919-.735.032-1.473.055-2.215.063-20.919.236-25.588-7.988-80.256-32.982-33.235-15.194-50.772-20.961-64.784-21.683C395.076,502.5,412.538,507.512,450.732,524.974Z" transform="translate(-281.017 -385.896)" fill="#feffff"/>
          <path id="Path_164" data-name="Path 164" d="M535.252,500.788c2.236-6.331,6.979-13.605,20.888-21.988,24.376-14.69,50.073-16.651,66.134-16.737,1.074-.006,2.314,0,3.706.028-16.146.276-40.55,2.72-63.763,16.709-13.91,8.383-18.652,15.657-20.888,21.988-.713,2.017-6.135,18.248,4.4,31.882a32.857,32.857,0,0,0,23.319,12.451,33.277,33.277,0,0,1-29.4-12.451C529.117,519.036,534.539,502.805,535.252,500.788Z" transform="translate(-533.225 -385.896)" fill="#feffff"/>
        </g>
      </g>
    </g>
  </g>
</svg>
