<svg xmlns="http://www.w3.org/2000/svg" xmlns:xlink="http://www.w3.org/1999/xlink" width="128.612" height="128.612" viewBox="0 0 128.612 128.612">
  <defs>
    <linearGradient id="linear-gradient" x1="0.555" y1="1.536" x2="0.885" y2="2.25" gradientUnits="objectBoundingBox">
      <stop offset="0" stop-color="#fff"/>
      <stop offset="1" stop-color="#fff" stop-opacity="0"/>
    </linearGradient>
  </defs>
  <g id="Planet_7" data-name="Planet 7" transform="translate(-1418.758 -755.32)">
    <g id="Group_36" data-name="Group 36" transform="translate(1418.758 755.32)">
      <g id="Group_35" data-name="Group 35">
        <circle id="Ellipse_18" data-name="Ellipse 18" cx="64.306" cy="64.306" r="64.306" fill="#ea3232"/>
        <path id="Path_694" data-name="Path 694" d="M1487.633,755.32a64.328,64.328,0,0,0-60.425,42.26c8.189-2.313,15.062-1.154,21.617,2.852,7.565,4.624,17.652-1.119,24.937-14.85s13.029,2.383,21.436,12.189,12.749-5.744,9.386-19.893c-.482-2.031-1.853-8.24,1.376-8.825,3.611-.654,6.684,2.633,9.135,4.773,2.934,2.561,5.871,5.318,9.386,7.068a61.919,61.919,0,0,0,12.537,4.279c1.024.256,2.049.51,3.08.74.378.084,2.451.244,2.624.531A64.267,64.267,0,0,0,1487.633,755.32Z" transform="translate(-1423.327 -755.32)" fill="#f15a29"/>
        <path id="Path_695" data-name="Path 695" d="M1502.649,940.512a63.936,63.936,0,0,0,18.2-7.908q2.214-1.492,4.309-3.167a83.468,83.468,0,0,0,13.407-13.463,63.994,63.994,0,0,0,12.24-37.722,64.813,64.813,0,0,0-.473-7.682c-1,2.476-2.45,5.979-2.885,7.048-2.115,5.2-2.862,11.99-7.943,15.344a5.684,5.684,0,0,1-5.691-.248c-4.165-2.829-6.165-7.951-8.2-12.335a74.162,74.162,0,0,1-2.957-7.359c-.412-1.213-.9-2.422-1.237-3.659-.013-.048-.023-.1-.038-.146,1.55,7.427,4.506,21.25-1.5,27.534-12.478,13.052-31.225-4.224-35.661-16.425a56.588,56.588,0,0,1-3.4-16.574c.571,18.111-16.07,32.226-31.77,37.986-4.561,1.675-12.046,2.969-16.76,1.174-1.954-.744-6.511-3.309-7.18-5.448.028.092.062.18.09.273q.377,1.177.792,2.338c.136.378.284.749.427,1.123.2.524.4,1.046.616,1.563.162.392.33.781.5,1.17.216.5.441.994.672,1.486.175.376.35.754.533,1.126.265.539.54,1.069.819,1.6.163.309.317.621.484.926q.653,1.192,1.353,2.353c.179.3.369.587.553.881.318.509.64,1.016.972,1.515.222.333.448.662.677.99q.475.687.969,1.362c.235.32.469.64.71.956.36.476.731.942,1.105,1.407.217.271.43.545.652.811q.877,1.054,1.793,2.069c.163.181.335.353.5.532.476.514.957,1.023,1.45,1.52.254.26.515.511.776.763.422.414.847.821,1.281,1.222q.414.384.832.758.68.608,1.378,1.192c.261.221.519.445.783.66q.94.768,1.909,1.5c.107.08.21.164.317.245.745.556,1.506,1.093,2.276,1.619.263.179.532.35.8.526.532.351,1.069.7,1.612,1.033.3.187.606.369.911.552q.805.48,1.624.934c.3.164.589.33.888.489q.973.522,1.969,1.008c.2.1.387.2.582.294q1.284.616,2.6,1.174c.243.1.489.2.732.3q.973.4,1.958.773c.321.118.644.233.966.348q.909.322,1.831.619c.327.105.653.21.983.31.672.2,1.35.394,2.031.577.265.071.526.148.79.215q1.414.36,2.85.658c.179.036.36.064.539.1.786.154,1.578.3,2.374.423.328.052.66.1.99.143q1,.143,2,.255c.355.039.71.077,1.064.11.69.064,1.383.115,2.079.158.318.019.635.044.955.059,1.008.048,2.019.077,3.039.077a77.887,77.887,0,0,0,10.7-1.059C1499.031,941.239,1500.848,940.914,1502.649,940.512Z" transform="translate(-1422.198 -813.946)" fill="#212a3c" opacity="0.2"/>
      </g>
      <path id="Path_696" data-name="Path 696" d="M1512.5,774.808c8.529,14.517-1.185,36.052-21.7,48.106s-44.058,10.057-52.585-4.456,1.189-36.054,21.7-48.106S1503.967,760.293,1512.5,774.808Z" transform="translate(-1427.604 -759.186)" opacity="0.3" fill="url(#linear-gradient)"/>
      <path id="Path_697" data-name="Path 697" d="M1503.574,777.039c5.091,8.67-1.612,22.062-14.976,29.915s-28.324,7.189-33.417-1.481,1.605-22.061,14.973-29.915S1498.48,768.369,1503.574,777.039Z" transform="translate(-1437.528 -763.299)" fill="#fff" opacity="0.3"/>
    </g>
  </g>
</svg>
