<svg xmlns="http://www.w3.org/2000/svg" xmlns:xlink="http://www.w3.org/1999/xlink" width="168.524" height="168.524" viewBox="0 0 168.524 168.524">
  <defs>
    <linearGradient id="linear-gradient" x1="0.555" y1="-0.313" x2="0.885" y2="0.397" gradientUnits="objectBoundingBox">
      <stop offset="0" stop-color="#fff"/>
      <stop offset="1" stop-color="#fff" stop-opacity="0"/>
    </linearGradient>
  </defs>
  <g id="Planet_1" data-name="Planet 1" transform="translate(-517.043 -9.256)">
    <g id="Group_3" data-name="Group 3" transform="translate(517.043 9.256)">
      <circle id="Ellipse_1" data-name="Ellipse 1" cx="59.582" cy="59.582" r="59.582" transform="translate(0 84.262) rotate(-45)" fill="#f58466"/>
      <g id="Group_1" data-name="Group 1" transform="translate(28.765 46.307)">
        <path id="Path_1" data-name="Path 1" d="M652.536,266.88c-8.367,0-17.839-.368-18.85,0s-4.6,2.759-12.689,2.759-15.816-3.494-20.138-4.137c-3.555-.531-10.655-1.868-14.034-2.019a59.788,59.788,0,0,0,22.069,26c8.9.218,18.674.381,23.32.2,6.714-.255,30.63-1.49,44.58-2.216a59.844,59.844,0,0,0,17.227-19.991C685.592,267.329,659.52,266.88,652.536,266.88Z" transform="translate(-585.892 -201.594)" fill="#e05b41"/>
        <path id="Path_2" data-name="Path 2" d="M584.632,134.34h.531s7.907,1.194,8.643,1.194h10.666l8.92-.184,31.172-.643,10.667-.92s13.7-.919,14.528-.919,15.724,1.472,16.183,1.472,5.61-.185,5.61-.185l3.686-.8a59.519,59.519,0,0,0-7.127-12.654c-1.109-.1-2.175-.211-3-.339-2.942-.46-8.459,0-11.126.276s-38.712-.092-38.712-.092-2.943.459-3.678.551-10.206-.367-10.667-.551-6.9-.829-7.264-.921-6.161-.551-7.172-1.01a13.415,13.415,0,0,0-3.494-.553l-9.786,1.248A59.511,59.511,0,0,0,584.632,134.34Z" transform="translate(-584.632 -118.063)" fill="#e05b41"/>
      </g>
      <g id="Group_2" data-name="Group 2" transform="translate(24.685 39.649)">
        <path id="Path_3" data-name="Path 3" d="M588.159,156.172h3.187l16.429-1.962s12.505-1.225,14.467-1.472,6.866-.244,6.866-.244,22.8-.246,24.03-.246,16.184-.981,16.184-.981,9.073.246,10.3.246,9.809,1.225,11.28,1.472c.792.131,2.5.333,3.918.493q-.865-2.507-1.943-4.908H667.359l-3.678-.245s-6.62-.491-9.072-.735-6.375,0-7.6,0H635.974c-1.472,0-16.183.491-17.655.735s-6.13.49-7.847.735a73.44,73.44,0,0,1-7.356,0,37.731,37.731,0,0,0-4.169.246l-7.356.736-8.157.094q-.91,2.2-1.644,4.481C584.536,155.416,588.159,156.172,588.159,156.172Z" transform="translate(-578.919 -128.302)" fill="#fed09e"/>
        <path id="Path_4" data-name="Path 4" d="M697.419,311.63s-12.505,1.227-14.467,1.472-6.866.245-6.866.245-22.8.245-24.03.245-16.183.981-16.183.981-1.79-.049-3.887-.1q2.011,1.482,4.145,2.8h1.7l3.678.247s6.62.49,9.073.735,6.375,0,7.6,0h11.034c1.471,0,16.183-.491,17.655-.735s6.13-.492,7.847-.737a32.914,32.914,0,0,1,4.664-.06,59.884,59.884,0,0,0,8.211-6.3Z" transform="translate(-607.753 -221.894)" fill="#fed09e"/>
        <path id="Path_5" data-name="Path 5" d="M690.181,262H680.59c-1.967,0-8.116-.192-13.526-.576-3.965-.281-7.916-.727-11.881-1-3.7-.254-7.4-.435-11.1-.607-12.723-.594-25.649-2.572-38.38-1.994-6.84.312-13.683.485-20.526.686q.516,1.281,1.091,2.532h1.606c.738,0,2.46.576,4.673.959,3.365.583,6.915.924,10.154,2.048,6.506,2.258,12.972,5.755,20.078,5.057a50.04,50.04,0,0,0,8.617-1.238,65.35,65.35,0,0,1,14.072-2.666c4.816-.287,9.641-.128,14.461-.128h8.115c2.459,0,11.312.576,13.28.576a34.4,34.4,0,0,1,6.886.768,15.464,15.464,0,0,0,3.383.375c.931-1.554,1.8-3.15,2.585-4.792Zm-70.118,3.781c-2.9-.1-5.222-1.248-5.178-2.57s2.434-2.315,5.337-2.218,5.223,1.248,5.177,2.57S622.968,265.874,620.064,265.777Z" transform="translate(-580.867 -191.621)" fill="#fed09e"/>
        <path id="Path_6" data-name="Path 6" d="M600.211,112.958c.395-.024.8-.051,1.226-.081,3.433-.245,13.977,0,16.674,0s16.428.981,19.371.981,15.448.246,20.6.246,12.751,2.206,27.953,2.452c4.915.078,9.8,0,14.167-.134a59.826,59.826,0,0,0-9.874-12.365l-.123-.008a92.243,92.243,0,0,0-14.222.736c-7.111.735-14.222-.49-21.333-.981-11.525-.981-24.03-1.962-35.555-.981-3.84.334-7.65.867-11.461,1.425A59.911,59.911,0,0,0,600.211,112.958Zm35.909-7.814c6.771.226,12.212,1.869,12.152,3.668s-5.6,3.075-12.37,2.848-12.213-1.868-12.152-3.667S629.348,104.919,636.12,105.145Z" transform="translate(-589.501 -102.418)" fill="#fed09e"/>
        <path id="Path_7" data-name="Path 7" d="M578.4,190.845c.736,0,3.923.49,5.885.735,6.086.761,12.268.3,18.33,1.295,5.034.827,10.27,1.03,15.243,2.043,3.526.718,6.8,2.4,10.194,3.566A55.546,55.546,0,0,0,657.883,200c4.79-1.045,9.332-2.922,14.022-4.308,4.643-1.374,9.351-1.822,14.139-2.4h8.106c.025-.71.054-1.419.054-2.136,0-.764-.029-1.521-.058-2.278-5.049-.426-10.085-.556-15.161-.783-6.946-.31-12.9-3.5-19.331-5.717a51.8,51.8,0,0,0-15.81-3.135c-8.594-.171-16.019,4.024-24.249,5.745-6.174,1.292-12.689.725-18.953.7-7.824-.03-15.648,0-23.472,0H575.3c-.158,1.739-.25,3.5-.255,5.278C576.77,190.9,578.152,190.845,578.4,190.845Zm66.905-6.127c7.579.253,13.631,3.256,13.516,6.709s-6.354,6.043-13.934,5.789-13.631-3.256-13.515-6.708S637.724,184.464,645.3,184.718Z" transform="translate(-575.045 -146.546)" fill="#fed09e"/>
      </g>
      <path id="Path_8" data-name="Path 8" d="M660.956,83.656c7.927,13.056-.6,32.723-19.056,43.925s-39.835,9.7-47.762-3.353.6-32.722,19.054-43.924S653.028,70.6,660.956,83.656Z" transform="translate(-559.626 -45.751)" opacity="0.3" fill="url(#linear-gradient)"/>
      <path id="Path_9" data-name="Path 9" d="M653.946,86.624c4.734,7.8-1.171,20.035-13.191,27.333s-25.6,6.894-30.336-.9,1.169-20.036,13.189-27.335S649.212,78.823,653.946,86.624Z" transform="translate(-569.74 -50.178)" fill="#fff" opacity="0.3"/>
    </g>
  </g>
</svg>
