<svg xmlns="http://www.w3.org/2000/svg" xmlns:xlink="http://www.w3.org/1999/xlink" width="263.254" height="160.241" viewBox="0 0 263.254 160.241">
  <defs>
    <linearGradient id="linear-gradient" x1="0.922" y1="1.17" x2="1.253" y2="1.879" gradientUnits="objectBoundingBox">
      <stop offset="0" stop-color="#fff"/>
      <stop offset="1" stop-color="#fff" stop-opacity="0"/>
    </linearGradient>
  </defs>
  <g id="Planet_4" data-name="Planet 4" transform="translate(-1328.758 -422.805)">
    <g id="Group_25" data-name="Group 25" transform="translate(1328.758 422.805)">
      <path id="Path_645" data-name="Path 645" d="M1457.121,523.933c-72.672,9.041-130.125,30.9-128.322,48.834s62.179,25.122,134.848,16.078,130.125-30.9,128.323-48.829S1529.793,514.894,1457.121,523.933Zm4.51,56.563c-44.509,5.538-92.648,3.137-94.189-12.216s44.927-29.519,89.434-35.061,92.641-3.137,94.186,12.22S1506.137,574.961,1461.632,580.5Z" transform="translate(-1328.758 -464.389)" fill="#ffc585"/>
      <g id="Group_24" data-name="Group 24" transform="translate(50.811)">
        <g id="Group_23" data-name="Group 23">
          <path id="Path_646" data-name="Path 646" d="M1577.437,502.926A79.947,79.947,0,1,1,1497.49,422.8,80.034,80.034,0,0,1,1577.437,502.926Z" transform="translate(-1417.543 -422.805)" fill="#f7941e"/>
          <g id="Group_22" data-name="Group 22" transform="translate(0.114)">
            <path id="Path_647" data-name="Path 647" d="M1574.438,485.6c-3.842-1.063-7.817-1.48-11.733-2.162-8.832-1.545-17.792-3.49-26.807-3.241-4.335.12-25.14,1.562-22.009,10.14,1.02,2.793,5.061,3.736,7.5,4.657a39.94,39.94,0,0,0,19.637,2.479c4.36-.625,8.478-2.583,12.913-2.753,5.132-.2,10.266-.277,15.4-.322,1.1-.009,5.166.283,8.724-.005,3.326-.269,6.2-1.04,5.778-3.034C1583.139,488.054,1577.15,486.348,1574.438,485.6Z" transform="translate(-1458.729 -447.342)" fill="#fbb040"/>
            <path id="Path_648" data-name="Path 648" d="M1578.267,456.138a79.8,79.8,0,0,0-123.56-7.609c17.581-.655,35.289-.834,52.468-4.835,4.68-1.092,9.376-2.538,14.259-2.386,11.127.346,21.284,5.288,31.435,9.17C1559.766,453.117,1569.8,456.894,1578.267,456.138Z" transform="translate(-1433.553 -422.805)" fill="#e05b41"/>
            <path id="Path_649" data-name="Path 649" d="M1651.6,586.764c-2.984-.317-6.214-1.155-9.206-.493-2.073.458-5.991,2.819-3.007,5.065.8.6,3.021.723,4,.913,6.444,1.246,13.178,2.261,19.7,3.031,1.807.214,3.617.338,5.429.415a80.01,80.01,0,0,0,2.147-9.18A87.976,87.976,0,0,1,1651.6,586.764Z" transform="translate(-1512.079 -492.615)" fill="#e05b41"/>
            <path id="Path_650" data-name="Path 650" d="M1568.659,618.1c-3.183-.08-34.4-5.606-35.434-1.671-.865,3.342-3.457,11.267-4.32,13.355s-8.645,4.59-8.645,4.59a38.307,38.307,0,0,0-10.37.835c-19.774,4.094-38.476-25.94-57.037-12.522-3.462,2.507-11.669,1.672-15.124,2.924a7.447,7.447,0,0,1-.793.237,79.862,79.862,0,0,0,141.283-6.8A66.323,66.323,0,0,0,1568.659,618.1Z" transform="translate(-1425.952 -505.017)" fill="#e05b41"/>
            <path id="Path_651" data-name="Path 651" d="M1513.854,590.251c-4.562-.1-9.389-1.319-13.9-.211-2.659.652-7.112,2.954-3.192,5.5,2.42,1.572,5.982.752,8.707,1.306a46.84,46.84,0,0,1,9.865,3.568c6.943,3.146,13.245,5.955,21.11,3.984,5.233-1.311,9.995-2.361,13.4-6.957,1.892-2.554,2.688-6.775,5.433-8.615-3.733-2.167-8.489-.568-12.394.243C1533.4,591.03,1523.475,590.469,1513.854,590.251Z" transform="translate(-1450.878 -493.346)" fill="#fbb040"/>
            <path id="Path_652" data-name="Path 652" d="M1443.87,501.211c3-.152,6.318.171,9.17-.951,1.977-.776,5.479-3.719,2.181-5.473-.88-.468-3.094-.241-4.089-.276-6.325-.218-12.878-.174-19.22.059a79.438,79.438,0,0,0-4.374,9.21A84.95,84.95,0,0,1,1443.87,501.211Z" transform="translate(-1421.933 -453.414)" fill="#f15a29"/>
            <path id="Path_653" data-name="Path 653" d="M1422.174,545.015c5.615,1.252,6.048.418,13.394,2.5s18.583,2.087,20.309,2.5a36.118,36.118,0,0,0,6.483.418h41.483c1.727,0,12.964-.836,16.419-1.253s12.1-.836,12.1-.836.865,0,9.94-1.252,19.013-2.918,22.9-.833c2.158,1.157,7.637,1.673,12.312,2.116a80.786,80.786,0,0,0-1.133-13.056l-20.253-5.334-20.308,1.669s-11.235,5.841-14.261,6.675-7.346.418-9.508.418-13.825-.835-13.825-.835a81.99,81.99,0,0,0-16.422-2.087c-7.777,0-25.5-.835-28.086,0s-8.643.836-9.94.836h-25.241q-.582,3.858-.794,7.831A16.727,16.727,0,0,1,1422.174,545.015Z" transform="translate(-1417.743 -468.65)" fill="#f15a29"/>
          </g>
          <path id="Path_654" data-name="Path 654" d="M1499.3,518.644c0,1.989-4.5,3.6-10.046,3.6s-10.045-1.609-10.045-3.6,4.5-3.6,10.045-3.6S1499.3,516.657,1499.3,518.644Z" transform="translate(-1443.918 -462.257)" fill="#fbb040"/>
          <path id="Path_655" data-name="Path 655" d="M1653.447,570.2c0,1.266-2.867,2.294-6.4,2.294s-6.4-1.028-6.4-2.294,2.867-2.293,6.4-2.293S1653.447,568.938,1653.447,570.2Z" transform="translate(-1512.965 -484.868)" fill="#fbb040"/>
          <path id="Path_656" data-name="Path 656" d="M1453.726,578.954c0,1.268-2.867,2.294-6.4,2.294s-6.4-1.026-6.4-2.294,2.867-2.293,6.4-2.293S1453.726,577.689,1453.726,578.954Z" transform="translate(-1427.542 -488.611)" fill="#fbb040"/>
          <path id="Path_657" data-name="Path 657" d="M1666.979,512.287c0,1.094-2.476,1.98-5.528,1.98s-5.529-.885-5.529-1.98,2.475-1.981,5.529-1.981S1666.979,511.192,1666.979,512.287Z" transform="translate(-1519.5 -460.23)" fill="#fbb040"/>
          <path id="Path_658" data-name="Path 658" d="M1581.49,631.14c0,1.094-2.478,1.981-5.53,1.981s-5.528-.887-5.528-1.981,2.474-1.978,5.528-1.978S1581.49,630.047,1581.49,631.14Z" transform="translate(-1482.936 -511.066)" fill="#fbb040"/>
          <path id="Path_659" data-name="Path 659" d="M1469.079,476.923c0,1.094-2.478,1.981-5.529,1.981s-5.528-.886-5.528-1.981,2.474-1.98,5.528-1.98S1469.079,475.828,1469.079,476.923Z" transform="translate(-1434.856 -445.105)" fill="#fbb040"/>
        </g>
        <path id="Path_660" data-name="Path 660" d="M1532.312,445.292c11.375,18.779-.868,47.063-27.346,63.175s-57.167,13.952-68.543-4.823.867-47.061,27.345-63.174S1520.935,426.518,1532.312,445.292Z" transform="translate(-1423.8 -425.74)" opacity="0.3" fill="url(#linear-gradient)"/>
        <path id="Path_661" data-name="Path 661" d="M1515.775,446.718c6.795,11.217-1.682,28.816-18.932,39.313s-36.743,9.914-43.536-1.3,1.679-28.817,18.93-39.313S1508.98,435.5,1515.775,446.718Z" transform="translate(-1431.836 -429.266)" fill="#fff" opacity="0.3"/>
      </g>
      <path id="Path_662" data-name="Path 662" d="M1591.97,540.674c-1.016-10.114-20.687-16.813-50.688-19.106a112.866,112.866,0,0,1-.128,15.051c5.885,2.334,9.505,5.458,9.909,9.477,1.545,15.353-44.926,29.523-89.432,35.058s-92.648,3.137-94.189-12.216c-.362-3.594,1.936-7.12,6.2-10.49a44.2,44.2,0,0,1-1.916-15.2c-27.207,9.41-43.908,20.379-42.924,30.174,1.8,17.92,62.179,25.122,134.848,16.078S1593.772,558.6,1591.97,540.674Z" transform="translate(-1328.758 -465.047)" fill="#ffc585"/>
    </g>
  </g>
</svg>
