<svg xmlns="http://www.w3.org/2000/svg" width="168.524" height="123.349" viewBox="0 0 168.524 123.349">
  <g id="Rocket" transform="translate(-1739.427 -293.03)">
    <g id="Group_40" data-name="Group 40">
      <path id="Path_700" data-name="Path 700" d="M1770.361,325.5s-5.243-21.287-30.934-20.867c12.164-14.681,59.352-20.553,71.475,13.841Z" fill="#00acff"/>
      <path id="Path_701" data-name="Path 701" d="M1770.361,383.906s-5.243,21.287-30.934,20.868c12.164,14.68,59.352,20.552,71.475-13.842Z" fill="#00acff"/>
      <path id="Path_702" data-name="Path 702" d="M1905.633,359.946c-58.917,45.936-112.992,40.11-148.784,23.027v-55.56c35.792-17.073,89.867-22.892,148.783,23.035A6.023,6.023,0,0,1,1905.633,359.946Z" fill="#fff"/>
      <circle id="Ellipse_19" data-name="Ellipse 19" cx="21.87" cy="21.87" r="21.87" transform="translate(1825.832 333.387)" fill="#00acff"/>
      <circle id="Ellipse_20" data-name="Ellipse 20" cx="14.838" cy="14.838" r="14.838" transform="translate(1832.865 340.42)" fill="#7b528f"/>
      <path id="Path_703" data-name="Path 703" d="M1804.02,362.67l-14.265,1.294a82.535,82.535,0,0,1-12.49.184l-27.3-1.668a7.567,7.567,0,0,1-7.1-7.552h0a7.566,7.566,0,0,1,7.11-7.552l27.739-1.675a82.477,82.477,0,0,1,12.564.2l13.754,1.27a7.565,7.565,0,0,1,6.87,7.534v.43A7.565,7.565,0,0,1,1804.02,362.67Z" fill="#00acff"/>
    </g>
  </g>
</svg>
