<svg xmlns="http://www.w3.org/2000/svg" width="2019" height="1080" viewBox="0 0 2019 1080">
  <g id="Group_3893" data-name="Group 3893" transform="translate(0 1.856)">
    <path id="Path_699" data-name="Path 699" d="M1786,539.07c-40.546-14.994-68.331-1.288-95.745,12.579s-67.961,16.491-82.233,16.491-68.711-7.876-95.745,12.369c-67.2,44.224-122.019,113.175-186.609,113.175-75.842,0-73.592-26.983-125.03-26.983s-67.21,98.191-171.587,123.3-140.432-16.861-220.024,37.475c-36.426,32.6-63.11,112.058-144.763,124.057-110.937,7.038-194.29-38.534-297.927,0S233.427,1078.144,134.3,1078.144H0V-1.021H134.3c47.307,0,159.955-11.81,247.809,53.4S596.133,149.071,664.264,128.9c71.921-10.492,126.36,14.615,173.3,83.207s78.093,83.946,108.507,87.689c46.188,5.251,94.995-19.855,137.052-19.855s72.461,22.86,109.637,63.331,72.091,82.827,126.16,92.571,148.313-12,188.479,8.245c69.841,32.225,72.842,66.706,129.171,70.08C1677.493,514.173,1717.669,486.231,1786,539.07Z" fill="#fff"/>
    <g id="Rocket" transform="translate(111.049 184.971)">
      <g id="Group_40" data-name="Group 40">
        <path id="Path_700" data-name="Path 700" d="M1770.361,325.5s-5.243-21.287-30.934-20.867c12.164-14.681,59.352-20.553,71.475,13.841Z" fill="#00acff"/>
        <path id="Path_701" data-name="Path 701" d="M1770.361,383.906s-5.243,21.287-30.934,20.868c12.164,14.68,59.352,20.552,71.475-13.842Z" fill="#00acff"/>
        <path id="Path_702" data-name="Path 702" d="M1905.633,359.946c-58.917,45.936-112.992,40.11-148.784,23.027v-55.56c35.792-17.073,89.867-22.892,148.783,23.035A6.023,6.023,0,0,1,1905.633,359.946Z" fill="#fff"/>
        <circle id="Ellipse_19" data-name="Ellipse 19" cx="21.87" cy="21.87" r="21.87" transform="translate(1825.832 333.387)" fill="#00acff"/>
        <circle id="Ellipse_20" data-name="Ellipse 20" cx="14.838" cy="14.838" r="14.838" transform="translate(1832.865 340.42)" fill="#7b528f"/>
        <path id="Path_703" data-name="Path 703" d="M1804.02,362.67l-14.265,1.294a82.535,82.535,0,0,1-12.49.184l-27.3-1.668a7.567,7.567,0,0,1-7.1-7.552h0a7.566,7.566,0,0,1,7.11-7.552l27.739-1.675a82.477,82.477,0,0,1,12.564.2l13.754,1.27a7.565,7.565,0,0,1,6.87,7.534v.43A7.565,7.565,0,0,1,1804.02,362.67Z" fill="#00acff"/>
      </g>
    </g>
  </g>
</svg>
