<svg xmlns="http://www.w3.org/2000/svg" width="1921.03" height="521.42" viewBox="0 0 1921.03 521.42">
  <g id="Surface-01" transform="translate(0 -558.58)">
    <g id="Group_29" data-name="Group 29" opacity="0.6">
      <g id="Group_28" data-name="Group 28">
        <g id="Group_1" data-name="Group 1">
          <path id="Path_1" data-name="Path 1" d="M1920,738.81v3.61H1766.05l-118.22.01H984.86l-3.64.01H318.2l-118.25.01H0v-3.64Z" fill="#fff"/>
        </g>
        <g id="Group_2" data-name="Group 2">
          <path id="Path_2" data-name="Path 2" d="M1920.14,1023.64H0V1020H1920v3.57Z" fill="#fff"/>
        </g>
        <g id="Group_3" data-name="Group 3">
          <rect id="Rectangle_2" data-name="Rectangle 2" width="1920" height="3.64" transform="translate(0 965.69)" fill="#fff"/>
        </g>
        <g id="Group_4" data-name="Group 4">
          <rect id="Rectangle_3" data-name="Rectangle 3" width="1920" height="3.65" transform="translate(0 922.36)" fill="#fff"/>
        </g>
        <g id="Group_5" data-name="Group 5">
          <rect id="Rectangle_4" data-name="Rectangle 4" width="1920" height="3.64" transform="translate(0 886.99)" fill="#fff"/>
        </g>
        <g id="Group_6" data-name="Group 6">
          <rect id="Rectangle_5" data-name="Rectangle 5" width="1920" height="3.64" transform="translate(0 857.57)" fill="#fff"/>
        </g>
        <g id="Group_7" data-name="Group 7">
          <rect id="Rectangle_6" data-name="Rectangle 6" width="1920" height="3.64" transform="translate(0 832.71)" fill="#fff"/>
        </g>
        <g id="Group_8" data-name="Group 8">
          <rect id="Rectangle_7" data-name="Rectangle 7" width="1920" height="3.64" transform="translate(0 811.43)" fill="#fff"/>
        </g>
        <g id="Group_9" data-name="Group 9">
          <rect id="Rectangle_8" data-name="Rectangle 8" width="1920" height="3.65" transform="translate(0 793)" fill="#fff"/>
        </g>
        <g id="Group_10" data-name="Group 10">
          <rect id="Rectangle_9" data-name="Rectangle 9" width="1920" height="3.64" transform="translate(0 776.9)" fill="#fff"/>
        </g>
        <g id="Group_11" data-name="Group 11">
          <rect id="Rectangle_10" data-name="Rectangle 10" width="1920" height="3.64" transform="translate(0 762.7)" fill="#fff"/>
        </g>
        <g id="Group_12" data-name="Group 12">
          <rect id="Rectangle_11" data-name="Rectangle 11" width="1920" height="3.64" transform="translate(0 750.09)" fill="#fff"/>
        </g>
        <g id="Group_13" data-name="Group 13">
          <path id="Path_3" data-name="Path 3" d="M1920,743.86v3.72l-23.37-5.16-.05-.01.04-.19.75-3.36,15.22,3.36.91.2Z" fill="#fff"/>
        </g>
        <g id="Group_14" data-name="Group 14">
          <path id="Path_4" data-name="Path 4" d="M1920,778.31v3.76l-5.95-1.53-14.14-3.64-41-10.56-14.13-3.64-34.83-8.97-14.13-3.64-29.77-7.67-.09-.02.05-.18.84-3.26.02-.09.35.09,12.66,3.26.79.2,29.76,7.67,14.14,3.64,34.82,8.97,14.13,3.64,41,10.56Z" fill="#fff"/>
        </g>
        <g id="Group_15" data-name="Group 15">
          <path id="Path_5" data-name="Path 5" d="M1920,826.55v3.81l-49.48-15.29-11.78-3.64-47.82-14.78-11.8-3.65-40.32-12.46-11.77-3.64-34.17-10.56-11.78-3.64-29.02-8.97-11.77-3.64-24.8-7.66-.18-.06.05-.15,1.03-3.33,10.77,3.33.67.21,24.8,7.66,11.77,3.64,29.03,8.97,11.77,3.64,34.17,10.56,11.78,3.64L1811.46,793l11.81,3.65,47.82,14.78,11.78,3.64Z" fill="#fff"/>
        </g>
        <g id="Group_16" data-name="Group 16">
          <path id="Path_6" data-name="Path 6" d="M1920,898.9v3.91l-31.52-12.18-9.42-3.64-66.73-25.78-9.42-3.64-54.92-21.22-9.43-3.64-45.65-17.64-9.43-3.64-38.25-14.78-9.45-3.65-32.25-12.46-9.42-3.64-27.33-10.56-9.43-3.64-23.21-8.97-9.42-3.64-19.84-7.66-.25-.1.04-.11,1.28-3.29,8.52,3.29.53.21,19.84,7.66,9.42,3.64,23.21,8.97,9.43,3.64,27.33,10.56,9.42,3.64L1645.9,793l9.45,3.65,38.25,14.78,9.43,3.64,45.65,17.64,9.43,3.64,54.92,21.22,9.42,3.64,66.73,25.78,9.42,3.64Z" fill="#fff"/>
        </g>
        <g id="Group_17" data-name="Group 17">
          <path id="Path_7" data-name="Path 7" d="M1921.03,1020H1920v3.57l-6.93-3.57-98.36-50.67-7.07-3.64-77.02-39.68-7.09-3.65-61.6-31.73-7.06-3.64-50.05-25.78-7.06-3.64-41.2-21.22-7.06-3.64-34.25-17.64-7.06-3.64-28.7-14.78-7.08-3.65-24.19-12.46-7.07-3.64-20.5-10.56-7.06-3.64-17.41-8.97-7.07-3.64-14.87-7.66-.35-.18.02-.03,1.65-3.21,6.23,3.21.41.21,14.87,7.66,7.07,3.64,17.41,8.97,7.06,3.64,20.5,10.56,7.07,3.64L1480.37,793l7.08,3.65,28.7,14.78,7.06,3.64,34.25,17.64,7.06,3.64,41.2,21.22,7.06,3.64,50.05,25.78,7.06,3.64,61.6,31.73,7.09,3.65,77.02,39.68,7.07,3.64,97.33,50.14Z" fill="#fff"/>
        </g>
        <g id="Group_18" data-name="Group 18">
          <path id="Path_8" data-name="Path 8" d="M1686.35,1080h-5.96l-72.94-56.36-4.71-3.64-65.58-50.67-4.71-3.64-51.35-39.68-4.72-3.65-41.07-31.73-4.71-3.64-33.36-25.78-4.71-3.64-27.47-21.22-4.71-3.64-22.83-17.64-4.71-3.64-19.12-14.78-4.73-3.65-16.12-12.46-4.71-3.64-13.67-10.56-4.71-3.64-11.61-8.97-4.71-3.64-9.91-7.66-.47-.36,1.12-1.45,1.11-1.43,3.92,3.03.27.21,9.92,7.66,4.71,3.64,11.61,8.97,4.71,3.64,13.66,10.56,4.71,3.64L1314.92,793l4.72,3.65,19.13,14.78,4.71,3.64,22.83,17.64,4.71,3.64,27.46,21.22,4.71,3.64,33.37,25.78,4.71,3.64,41.06,31.73,4.73,3.65,51.35,39.68,4.71,3.64L1608.7,1020l4.71,3.64Z" fill="#fff"/>
        </g>
        <g id="Group_19" data-name="Group 19">
          <path id="Path_9" data-name="Path 9" d="M1335.38,1080h-4.35l-36.47-56.36-2.35-3.64-32.79-50.67-2.35-3.64-25.68-39.68-2.36-3.65-20.54-31.73-2.35-3.64-16.68-25.78-2.36-3.64-13.73-21.22-2.36-3.64-11.41-17.64-2.36-3.64-9.56-14.78-2.36-3.65-8.06-12.46-2.36-3.64-6.83-10.56-2.36-3.64-5.8-8.97-2.36-3.64-4.95-7.66-.53-.81,3.06-1.98,1.81,2.79,4.95,7.66,2.36,3.64,5.8,8.97,2.36,3.64,6.83,10.56,2.36,3.64,8.06,12.46,2.36,3.65,9.57,14.78,2.35,3.64,11.42,17.64,2.35,3.64,13.73,21.22,2.36,3.64,16.68,25.78,2.35,3.64,20.54,31.73,2.36,3.65,25.68,39.68,2.35,3.64,32.79,50.67,2.36,3.64Z" fill="#fff"/>
        </g>
        <g id="Group_20" data-name="Group 20">
          <rect id="Rectangle_12" data-name="Rectangle 12" width="3.64" height="339.37" transform="translate(981.22 740.63)" fill="#fff"/>
        </g>
        <g id="Group_21" data-name="Group 21">
          <path id="Path_10" data-name="Path 10" d="M854.01,741.62l-.53.82-4.95,7.65-2.36,3.64-5.8,8.97-2.36,3.64-6.83,10.56-2.35,3.64L820.76,793l-2.36,3.65-9.56,14.78-2.36,3.64-11.41,17.64-2.36,3.64-13.73,21.22-2.35,3.64-16.69,25.78-2.35,3.64-20.53,31.73-2.37,3.65-25.67,39.68-2.36,3.64L673.88,1020l-2.36,3.64L635.05,1080h-4.34l36.47-56.36,2.35-3.64,32.79-50.67,2.36-3.64,25.67-39.68,2.37-3.65,20.53-31.73,2.35-3.64,16.68-25.78,2.36-3.64,13.73-21.22,2.36-3.64,11.41-17.64,2.36-3.64,9.56-14.78,2.36-3.65,8.06-12.46,2.36-3.64,6.83-10.56,2.36-3.64,5.8-8.97,2.36-3.64,4.95-7.65,1.81-2.8Z" fill="#fff"/>
        </g>
        <g id="Group_22" data-name="Group 22">
          <path id="Path_11" data-name="Path 11" d="M723.03,742.07l-.48.37-9.9,7.65-4.71,3.64-11.61,8.97-4.71,3.64L677.95,776.9l-4.71,3.64L657.12,793l-4.73,3.65-19.12,14.78-4.71,3.64-22.83,17.64-4.71,3.64-27.47,21.22-4.71,3.64-33.36,25.78-4.71,3.64L489.7,922.36l-4.72,3.65-51.35,39.68-4.71,3.64L363.34,1020l-4.71,3.64L285.69,1080h-5.95l72.94-56.36,4.71-3.64,65.58-50.67,4.71-3.64,51.35-39.68,4.73-3.65,41.06-31.73,4.71-3.64,33.37-25.78,4.71-3.64,27.46-21.22,4.71-3.64,22.83-17.64,4.71-3.64,19.13-14.78,4.72-3.65,16.13-12.46,4.71-3.64,13.66-10.56,4.71-3.64,11.61-8.97,4.71-3.64,9.9-7.65,4.21-3.25Z" fill="#fff"/>
        </g>
        <g id="Group_23" data-name="Group 23">
          <path id="Path_12" data-name="Path 12" d="M592.19,742.25l-.37.19-14.85,7.65-7.07,3.64-17.41,8.97-7.06,3.64-20.5,10.56-7.07,3.64L493.67,793l-7.08,3.65-28.7,14.78-7.06,3.64-34.25,17.64-7.06,3.64-41.2,21.22-7.06,3.64-50.05,25.78-7.06,3.64-61.6,31.73-7.09,3.65-77.02,39.68-7.07,3.64L53.01,1020l-7.07,3.64L0,1047.31v-4.1l37.98-19.57,7.07-3.64,98.36-50.67,7.07-3.64,77.03-39.68,7.08-3.65,61.6-31.73,7.06-3.64,50.05-25.78,7.06-3.64,41.2-21.22,7.06-3.64,34.25-17.64,7.06-3.64,28.7-14.78,7.08-3.65,24.19-12.46,7.07-3.64,20.5-10.56,7.06-3.64,17.41-8.97,7.07-3.64,14.85-7.65,3.13-1.61,3.53-1.82.84,1.63Z" fill="#fff"/>
        </g>
        <g id="Group_24" data-name="Group 24">
          <path id="Path_13" data-name="Path 13" d="M461.45,742.33l-.28.11-.06.02-19.75,7.63-9.42,3.64-23.21,8.97-9.43,3.64L371.97,776.9l-9.42,3.64L330.3,793l-9.45,3.65L282.6,811.43l-9.42,3.64-45.66,17.64-9.42,3.64-54.93,21.22-9.42,3.64L87.03,886.99l-9.43,3.64L0,920.61V916.7l67.49-26.07,9.42-3.64,66.73-25.78,9.42-3.64,54.92-21.22,9.43-3.64,45.65-17.64,9.43-3.64,38.25-14.78,9.45-3.65,32.25-12.46,9.42-3.64,27.33-10.56,9.43-3.64,23.21-8.97,9.42-3.64L451,742.46l.05-.02,9.09-3.51Z" fill="#fff"/>
        </g>
        <g id="Group_25" data-name="Group 25">
          <path id="Path_14" data-name="Path 14" d="M330.77,742.37l-.23.07-.06.02-24.69,7.63-11.77,3.64-29.03,8.97-11.77,3.64L219.05,776.9l-11.77,3.64L166.96,793l-11.81,3.65-47.81,14.78-11.78,3.64L38.49,832.71l-11.78,3.64L0,844.61V840.8l14.38-4.45,11.78-3.64,57.07-17.64,11.78-3.64,47.82-14.78,11.8-3.65,40.32-12.46,11.77-3.64,34.17-10.56,11.78-3.64,29.02-8.97,11.77-3.64,24.69-7.63.05-.02h.01l11.49-3.55Z" fill="#fff"/>
        </g>
        <g id="Group_26" data-name="Group 26">
          <path id="Path_15" data-name="Path 15" d="M200.13,742.4l-.18.05h-.01l-.04.01-29.63,7.63-14.13,3.64-34.83,8.97-14.13,3.64-41,10.56-14.13,3.64L3.67,793,0,793.94v-3.76l37.44-9.64,14.13-3.64,41-10.56,14.13-3.64,34.83-8.97,14.13-3.64,29.62-7.63.04-.01,13.9-3.58Z" fill="#fff"/>
        </g>
        <g id="Group_27" data-name="Group 27">
          <path id="Path_16" data-name="Path 16" d="M69.5,742.41l-.18.04-.05.01-34.56,7.63-16.48,3.64L0,757.75v-3.72l1.36-.3,16.49-3.64,34.56-7.63.05-.01,16.26-3.59Z" fill="#fff"/>
        </g>
      </g>
      <path id="Path_17" data-name="Path 17" d="M1920,676.27v-3.42l-87.75-27.89-217.56-29.29-126.3,68.18-243.74,54.96-.84.19.36,1.59v1.63h264.82l.13.21.45.72,1.14-.72.33-.21H1920v-3.26h-17.75l.22-.15,11.59-7.92,4.34.29h.07l1.53-.03V727.9l-1.45.02-.13-.01,1.58-1.08v-3.95l-6.85,4.68-111.22-7.41-3.08-.09,16.2-14.7L1920,719.18v-3.29l-101.87-13.42,4.26-15.58L1920,705.95v-3.32l-96.75-18.89,4.35-15.88,92.4,23.78v-3.37l-91.54-23.55,4.42-16.14Zm-306.92-56.03-1.95,20.19-119.34,51.33-1.01-5.5Zm-8.15,69.43-.21-.01-109.05,23.26-1.45-7.93,114.19-36.69.03.01-2.07,21.44Zm1.13,3.33-2.07,21.39-2.49-.07-.11-.01-99.5,10.57-5.55-8.77,108.63-23.17Zm2.3-27.97-.32-.03-114.42,36.76-1.23-6.7,118.38-50.92-2.02,20.92Zm-227.03,46.3,106.34-23.97,1.05,5.73-4.13,1.77L1380.9,713.87Zm-1.02,5.96,105.05-19.25.18-.04,3.78-1.62,1.17,6.38-9.69,3.12-100.95,14.1Zm-1.03,6.07,102.11-14.27.14-.02,9.55-3.07,1.4,7.6-15.46,3.3-98.23,9.3Zm98.14-3.22.09-.01,15.56-3.32.05.31,5.15,8.15-25.03,2.66-95.53,4.6.51-3Zm-99.53-8.03-.41,2.39-54.37,9.96Zm-.99,5.81-.44,2.54-56.44,7.89Zm-1.01,5.91-.46,2.69-58.31,5.52Zm-1.03,6.02-.48,2.84-59.96,2.89Zm-1.55,9.11h-61.39l3.12-.15,58.77-2.83-.47,2.83Zm3.3,0,.03-.15.51-2.99,96.3-4.64,26.76-2.84,4.65,10.47.07.15Zm135.42,0-.11-.15-8.09-10.85,97.69-10.38,3.64.11,29.49,21.12.21.15Zm131.22,0-.23-.15-31.68-20.94,179.32,5.21-17.33,15.73-.17.15Zm158.52-15.56,107.02,7.14-12.1,8.27-.22.15H1778.02l.17-.15,17.18-15.59Zm-7.62-3.48-186.89-5.44,2.06-21.29,199.88,11.39,1.61.22Zm21.05-19.1-1.22,1.1-4.42-.58h-.06l-199.87-11.4,2.06-21.36,204.9,17.18,2.59.51Zm4.84-17.71-2.91-.57-.09-.01-205.03-17.2,2.06-21.42,209.92,23.03.45.11Zm5.26-19.21-.61-.15-.11-.03-210.2-23.05,2.08-21.47,213.23,28.68Z" fill="#fff" opacity="0.7"/>
      <path id="Path_18" data-name="Path 18" d="M591.72,738.81,457.67,684.72,270.28,558.58,95.62,617.62,0,602.95v3.68l93.68,14.38L90.34,641.1l-2.81.77L0,630.88v3.67l87.44,10.98.36.04,1.89-.52-3.26,19.6-6.99,1.46L0,658.46v3.66l79.37,7.64.28.03,6.14-1.28-3.37,20.28-11.06,1.56L0,685.66v3.65l71.31,4.68.18.02,10.3-1.46-.13.78L75.63,713.7l-12.36.88L0,712.46v3.64l63.24,2.13h.1l11.13-.8-6.7,21.38H0v3.65H543.44v-.8l9.32.78.11.01v-.01l.14-1.56,9.3,1.55.38-2.27,9.06,2.24.72-2.89,8.74,2.86,1.11-3.42,4.67,1.88,3.69,1.49.68-1.68.68-1.7ZM461.25,721.92l-.51-6.95,85.08,21.02Zm66.53,14.76-65.85-5.53-.41-5.49Zm-67.32-25.53-.61-8.36,103.91,33.88Zm1.74,23.67,47.43,3.99H462.49Zm119.42,3.85L459.56,698.86l-.72-9.74Zm-122.78.14H251.29L227.08,706.5l.67-.05,195.88,25.13,34.89,2.93Zm-1.01-13.77.42,5.8-34.2-2.88L228.03,702.82l-.18-.02-3.36.24-.03-.04,17.07-31.68,190.11,49.36.08.02Zm-.28-3.74-25.07-4.17L243.31,668.02l.27-.5.09-.16,9.44-31.14,186.56,73.53.11.04,17.24,4.26Zm-.81-11.07-15.85-3.92L254.17,632.73l9.64-31.76L447.72,698.8l.14.08,8.24,2.68ZM271.28,563.64,455.06,687.35l.75,10.29-6.52-2.13-184.43-98.1ZM97.4,620.87l170.24-57.56-6.13,32.31-1.84-.97L94.21,640.04Zm-3.84,23.12,165.68-45.44,1.29.68-9.76,32.16-1.2-.48-.5-.2L90.25,663.85Zm-3.95,23.72L248.74,634.5l.97.38-9.42,31.07-.61,1.13-1.22-.32L86.2,688.25Zm-4.43,26.55.04-.11.35-2.13,152.25-21.49-17.67,32.79.02.03L79.51,713.42Zm-6.8,22.89,144.38-10.34,23.98,32H71.59Z" fill="#fff" opacity="0.7"/>
    </g>
  </g>
</svg>
