<svg xmlns="http://www.w3.org/2000/svg" xmlns:xlink="http://www.w3.org/1999/xlink" width="200.046" height="199.981" viewBox="0 0 200.046 199.981">
  <defs>
    <linearGradient id="linear-gradient" x1="-11.175" y1="2.385" x2="-10.175" y2="2.385" gradientUnits="objectBoundingBox">
      <stop offset="0" stop-color="#ed5000" stop-opacity="0"/>
      <stop offset="1" stop-color="#fbb040"/>
    </linearGradient>
    <linearGradient id="linear-gradient-2" x1="0.492" y1="-0.403" x2="0.506" y2="1.21" gradientUnits="objectBoundingBox">
      <stop offset="0" stop-color="#fffdff" stop-opacity="0"/>
      <stop offset="1" stop-color="#fff"/>
    </linearGradient>
    <linearGradient id="linear-gradient-4" x1="0.491" y1="-0.588" x2="0.514" y2="2.241" xlink:href="#linear-gradient-2"/>
    <linearGradient id="linear-gradient-5" x1="0.483" y1="-1.579" x2="0.506" y2="1.25" xlink:href="#linear-gradient-2"/>
    <linearGradient id="linear-gradient-6" x1="0.485" y1="-1.343" x2="0.512" y2="1.95" xlink:href="#linear-gradient-2"/>
    <linearGradient id="linear-gradient-7" x1="0.489" y1="-0.763" x2="0.508" y2="1.493" xlink:href="#linear-gradient-2"/>
    <linearGradient id="linear-gradient-8" x1="0.481" y1="-1.859" x2="0.507" y2="1.223" xlink:href="#linear-gradient-2"/>
    <linearGradient id="linear-gradient-9" x1="0.49" y1="-0.591" x2="0.516" y2="2.491" xlink:href="#linear-gradient-2"/>
  </defs>
  <g id="VR_Selection" data-name="VR Selection" transform="translate(-376.872 -100.64)">
    <g id="Group_110" data-name="Group 110">
      <g id="Group_106" data-name="Group 106">
        <circle id="Ellipse_6" data-name="Ellipse 6" cx="40.097" cy="40.097" r="40.097" transform="translate(436.798 160.52)" fill="url(#linear-gradient)"/>
      </g>
      <g id="Group_109" data-name="Group 109" opacity="0.78" style="mix-blend-mode: overlay;isolation: isolate">
        <path id="Path_135" data-name="Path 135" d="M476.895,285.219a84.588,84.588,0,1,1,84.588-84.588A84.684,84.684,0,0,1,476.895,285.219Zm0-167.185a82.6,82.6,0,1,0,82.6,82.6A82.69,82.69,0,0,0,476.895,118.034Z" fill="url(#linear-gradient-2)"/>
        <path id="Path_136" data-name="Path 136" d="M476.895,273.142a72.511,72.511,0,1,1,72.512-72.511A72.594,72.594,0,0,1,476.895,273.142Zm0-143.316a70.8,70.8,0,1,0,70.805,70.8A70.885,70.885,0,0,0,476.895,129.826Z" fill="url(#linear-gradient-2)"/>
        <g id="Group_107" data-name="Group 107">
          <path id="Path_137" data-name="Path 137" d="M573.387,200.631h-5.4a91.193,91.193,0,0,0-91.089-91.091v-5.4A96.6,96.6,0,0,1,573.387,200.631Z" fill="url(#linear-gradient-4)"/>
        </g>
        <g id="Group_108" data-name="Group 108">
          <path id="Path_138" data-name="Path 138" d="M476.895,297.123A96.6,96.6,0,0,1,380.4,200.631h5.4a91.2,91.2,0,0,0,91.09,91.09Z" fill="url(#linear-gradient-5)"/>
        </g>
        <path id="Path_139" data-name="Path 139" d="M476.895,165.266a35.364,35.364,0,1,0,35.364,35.364A35.4,35.4,0,0,0,476.895,165.266Zm0,57.147a21.783,21.783,0,1,1,21.783-21.783A21.808,21.808,0,0,1,476.895,222.413Z" fill="url(#linear-gradient-6)"/>
        <path id="Path_140" data-name="Path 140" d="M476.895,140.131a60.5,60.5,0,1,0,60.5,60.5A60.568,60.568,0,0,0,476.895,140.131Zm0,111.7a51.205,51.205,0,1,1,51.2-51.205A51.262,51.262,0,0,1,476.895,251.835Z" fill="url(#linear-gradient-7)"/>
        <path id="Path_141" data-name="Path 141" d="M490.407,300.621l-1.886-14.077c.871-.117,1.737-.247,2.6-.39l2.308,14.014Q491.926,300.416,490.407,300.621Zm9.036-1.639-3.171-13.845q1.283-.293,2.548-.625l3.6,13.739Q500.94,298.638,499.443,298.982Zm8.844-2.459-4.421-13.495q1.25-.411,2.482-.859l4.852,13.348Q509.754,296.044,508.287,296.523Zm8.608-3.269-5.653-13.029q1.211-.525,2.4-1.086l6.042,12.854C518.765,292.426,517.832,292.846,516.9,293.254Zm8.261-4.039-6.821-12.458q1.158-.634,2.3-1.3l7.185,12.252Q526.5,288.479,525.156,289.215Zm7.85-4.77-7.925-11.786q1.1-.74,2.173-1.508l8.258,11.556Q534.27,283.594,533.006,284.445Zm7.377-5.453-8.951-11.027q1.019-.828,2.013-1.686l9.29,10.743Q541.574,278.026,540.383,278.992Zm6.856-6.1-9.906-10.178q.936-.914,1.846-1.853l10.228,9.853Q548.34,271.824,547.239,272.895Zm6.276-6.687-10.783-9.245q.858-1,1.681-2.021l11.057,8.915Q554.51,265.048,553.515,266.208Zm5.643-7.222-11.567-8.238q.758-1.065,1.481-2.154l11.828,7.864Q560.048,257.739,559.158,258.986Zm4.972-7.707-12.271-7.149c.439-.755.869-1.52,1.288-2.289l12.48,6.779Q564.9,249.963,564.13,251.279Zm4.249-8.117-12.868-6.008q.552-1.185,1.072-2.392l13.045,5.617Q569.023,241.781,568.379,243.162Zm3.493-8.471-13.364-4.807q.445-1.234.853-2.486l13.5,4.4Q572.39,233.253,571.872,234.691Zm2.708-8.778-13.75-3.556q.33-1.273.621-2.561l13.85,3.146Q574.96,224.437,574.58,225.913Zm1.89-8.979-14.016-2.292q.21-1.287.381-2.589l14.083,1.842C576.785,214.914,576.635,215.925,576.47,216.934Z" fill="url(#linear-gradient-8)"/>
        <path id="Path_142" data-name="Path 142" d="M463.383,100.64l1.886,14.078c-.871.116-1.737.246-2.6.389l-2.308-14.013Q461.864,100.845,463.383,100.64Zm-9.036,1.639,3.171,13.845q-1.283.294-2.548.625l-3.6-13.739Q452.849,102.623,454.347,102.279Zm-8.844,2.459,4.421,13.5q-1.25.41-2.482.858l-4.852-13.348Q444.036,105.217,445.5,104.738Zm-8.608,3.269,5.653,13.03q-1.211.523-2.4,1.086L434.1,109.268C435.025,108.836,435.958,108.415,436.895,108.007Zm-8.261,4.039,6.821,12.458q-1.158.635-2.3,1.3l-7.185-12.252Q427.291,112.782,428.634,112.046Zm-7.85,4.77,7.925,11.786q-1.1.739-2.173,1.508l-8.258-11.556Q419.52,117.667,420.784,116.816Zm-7.377,5.454,8.951,11.026q-1.019.828-2.013,1.686l-9.29-10.743Q412.216,123.237,413.407,122.27Zm-6.856,6.1,9.906,10.177q-.936.913-1.846,1.853l-10.228-9.853Q405.449,129.437,406.551,128.367Zm-6.276,6.686,10.783,9.246q-.858,1-1.681,2.02L398.32,137.4Q399.28,136.214,400.275,135.053Zm-5.643,7.222,11.567,8.239q-.758,1.065-1.481,2.153L392.89,144.8Q393.742,143.522,394.632,142.275Zm-4.972,7.707,12.271,7.149q-.658,1.134-1.288,2.29l-12.48-6.78Q388.891,151.3,389.66,149.982Zm-4.249,8.117,12.868,6.008q-.552,1.187-1.072,2.393l-13.045-5.618Q384.767,159.481,385.411,158.1Zm-3.493,8.471,13.364,4.808q-.446,1.233-.853,2.485l-13.5-4.4Q381.4,168.008,381.918,166.57Zm-2.708,8.778,13.751,3.557q-.332,1.272-.622,2.56l-13.85-3.146Q378.829,176.824,379.21,175.348Zm-1.89,8.98,14.016,2.291q-.21,1.287-.381,2.589l-14.083-1.842Q377.072,185.838,377.32,184.328Z" fill="url(#linear-gradient-9)"/>
      </g>
    </g>
  </g>
</svg>
