<svg xmlns="http://www.w3.org/2000/svg" width="1382.91" height="285.27" viewBox="0 0 1382.91 285.27">
  <g id="Surface-02" transform="translate(-537.09 -795.77)">
    <g id="Group_40" data-name="Group 40">
      <g id="Group_35" data-name="Group 35">
        <g id="Group_30" data-name="Group 30">
          <path id="Path_19" data-name="Path 19" d="M1920,990.18v71.04l-2.88.01-7.11.02-7.12.02-76.88.21-14.11.04h-.02l-14.12.04h-.02l-202.53.55-3.74.01-183.38.51-3.65.01-218.75.6-4.15.01-248.6.68-4.14.01-11.64.04H917l-39.91.11h-.18l-43.43.11-.1.01-131.96.36-21.54.06-21.46.06-16.4.04-14.48.04-6.66.02-6.11.02h-1.69l-3.26.01-4.03.01,29.47-7.06L983.02,974.5l2.4-.58h.01l305.82-85.66,2.57-.72h.01l219.14,16.72,2.08.16h.01l172.85-104.48v-.01l2.68-1.62.02.01,1.39,1.16v.01Z" fill="#94d3f8"/>
          <path id="Path_20" data-name="Path 20" d="M1691.93,796.72,1920,987.48v5.4L1691.11,801.44l-.71-.59-4,2.42L1515.78,906.4v.01l-.22.13-.66-.05-3.4-.26-216.95-16.55-.51-.04-4.5,1.26L986.35,975.82l-.43.12L981.49,977l-299.33,71.67-46.53,11.14-18.2,4.36-2.66.64-8.5,2.03-.24-.99-.07-.28-.17-.74-.31-1.28-.18-.74,379.61-90.9,308.71-86.46.37.03,220.56,16.82,176.24-106.53Z" fill="#fff"/>
        </g>
        <g id="Group_31" data-name="Group 31">
          <path id="Path_21" data-name="Path 21" d="M1665.74,857.28,1920,1021.34v44.67h-1.35l-60.68.14-14.13.03-14.19.03-232.84.51-3.74.01-183.86.4-3.65.01-222.55.49-4.15.01-248.5.54-4.14.01-93.36.2-.18.01-42.93.09h-.03l-42.92.09h-.16l-87.42.2-21.43.04-21.34.05h-2.53l-14.26.04h-.15l-10.87.02,11.06-2.15,6.26-1.21,3.86-.75,25.81-5.01,327.7-63.6,7.57-1.71v-.01l4.78-1.08,290.04-65.72,2.56-.58,1.95.12,215.34,13.38h.03l7.19-3.43v-.01l169.54-80.97,1-.48Z" fill="#94d3f8"/>
          <path id="Path_22" data-name="Path 22" d="M1666.62,855.38,1920,1018.87v4.94L1664.81,859.15v-.01l-1.63-1.05-2.34,1.12-170.95,81.64v.01l-3.88,1.85-.54-.03-1.47-.09-215.05-13.37-.5-.03-4.34.98-289.92,65.7-4.79,1.09-5.61,1.27-318.65,61.85-24.26,4.71-20.73,4.02-.49.1-10.63,2.06-.1-.5-.39-2.04-.3-1.53,17.24-3.35,29.78-5.78,46.9-9.1,280.77-54.5,9.46-2.14,4.79-1.09,290.15-65.74.78-.18.3.02,3.12.19,213.67,13.28,3.29-1.57,6.96-3.32v-.01l168.03-80.26.13.09.84.54Z" fill="#fff"/>
        </g>
        <g id="Group_32" data-name="Group 32">
          <path id="Path_23" data-name="Path 23" d="M1920,1045.81v25.02l-29.51.05h-.06l-14.15.02h-.02l-14.2.02h-.04l-263.6.44h-3.75l-184.34.3-3.65.01-226.36.37-4.15.01-248.4.41h-4.14l-177.17.29h-.12l-42.35.07h-.1l-42.35.07h-.1l-44.25.08-21.32.03-10.02.02-11.19.01-3.17.01,17.44-2.57,10.58-1.56.64-.1,27.39-4.04,313.69-46.28,16.88-2.9,4.61-.79,277.56-47.71,2.45-.42,1.91.09,211.51,10.03.89-.32,6.41-2.26,170.26-60.25,2.35-.83,1.64.76v.01Z" fill="#94d3f8"/>
          <path id="Path_24" data-name="Path 24" d="M1920,1043.52v4.57L1636.77,915.75l-.82-.38-3.56,1.26L1460.93,977.3l-4.47,1.58-.41-.02-.92-.04L1243.4,968.78l-.55-.03-4.01.69L961.3,1017.15l-4.62.79-15.1,2.6-299.56,44.19-28.1,4.14-5.15.76-22.92,3.39-14.06,2.07-.26-1.74-.04-.31-.3-2.05,17.35-2.56,11.16-1.65,6.33-.93,7.05-1.04,4.35-.64,27.71-4.09,295.78-43.64,18.62-3.2,4.61-.79,277.58-47.71.87-.15.22.01,3.12.15,209.9,9.95,3.72-1.31.01-.01,6.31-2.23,169.16-59.86,1.13-.4.77.36,1.68.79Z" fill="#fff"/>
        </g>
        <g id="Group_33" data-name="Group 33">
          <path id="Path_25" data-name="Path 25" d="M1920,1064.26v11.39l-10.99.01h-.04l-14.32.02h-.02l-294.6.32h-3.75l-184.82.21h-3.65l-230.19.25h-3.38l-249.07.28h-4.13l-259.14.28-41.87.05-42.14.04-2.34.01-21.21.02,41.53-4.14,41.92-4.18,42.09-4.19,239.24-23.85,25.51-2.96,4.45-.51,267.23-30.98.86-.1,3.28.11,206.24,6.64.7-.16,5.64-1.32,172.26-40.14,3.5-.82.62.19,300.6,90.52Z" fill="#94d3f8"/>
          <path id="Path_26" data-name="Path 26" d="M1920,1062.1v4.32l-1.35-.41-15.76-4.74-294.17-88.59-.16.04-4.29,1-173.39,40.41-3.98.93-.27-.01-1.04-.03-206.38-6.65-1.95-.06-2.32.27-267.22,30.97-4.45.52-23.91,2.77-217.94,21.73-42.2,4.21-42.03,4.19-41.64,4.15-2.44.24h-.01l-18.55,1.85-.09-.91-.12-1.16-.2-2.06,17.39-1.73,3.13-.32,34.11-3.4,7.68-.76,41.97-4.18,260.5-25.97,27.07-3.14,4.45-.51,266.65-30.92.54.02,4.07.13,204.79,6.6,3.04-.71,5.64-1.31,171.14-39.9,2.55-.59.53.16.87.26,306.86,92.42Z" fill="#fff"/>
        </g>
        <g id="Group_34" data-name="Group 34">
          <path id="Path_27" data-name="Path 27" d="M1920,1077.27V1080H1601.41l.23.67h-3.74l-185.31.1h-3.65l-486.37.27h-4.14l.63-1.04H561.94l57.82-2.92h.04l.23-.01,83.86-4.25h.1l85.73-4.33h.03l87.16-4.4h.18l19.92-1.02,33.51-1.97,4.29-.25,256.81-15.06.58.01,4.1.07,200.94,3.3,3.75-.43,3.55-.41,176.32-20.3.66-.08,3.03.44,227.33,33.13h.02l31.94,4.66.08.01h.02l32.32,4.71h.02l32.69,4.76h.04Z" fill="#94d3f8"/>
          <path id="Path_28" data-name="Path 28" d="M1920,1075.18v4.19l-25.35-3.69h-.02l-32.57-4.76h-.04l-32.29-4.7h-.01l-.07-.01-31.89-4.65h-.02l-213.51-31.12-2.74-.4-1.09.13-175.35,20.18-3.56.41-4.15.48h-.14l-202.16-3.31-3.38-.06-.75.04-257.41,15.1-4.29.25-12.05.72H917l-19.86,1.16-64.28,3.25-.11.01h-.07l-86.22,4.35h-.12l-84.44,4.27-.14.01h-.04L603.03,1080h-65.9l-.04-.82,17.37-.88,18.64-.94h.01l4.58-.24h.09l.11-.01,83.55-4.22h.1l85.1-4.31h.16l86.58-4.37.1-.01,63.43-3.2,34.91-2.05,4.29-.25,255.46-14.98h.08l1.8.03,4.1.07,199.58,3.27,3.35-.39,4.22-.48,176.85-20.36.23.03.04.01,3.58.52,240.61,35.06,31.96,4.67.09.01h.03l32.34,4.72h.06Z" fill="#fff"/>
        </g>
      </g>
      <g id="Group_36" data-name="Group 36">
        <path id="Path_29" data-name="Path 29" d="M986.94,974.84l-.59.98-9.17,15.12-1.5,2.47-1.49,2.46-10.04,16.58-.01.01-1.42,2.34-1.42,2.35-10.86,17.92-1.36,2.24-1.36,2.24-11.61,19.15-1.3,2.15-1.31,2.16-.56.92-2.58,4.25-2.59,4.28-2.6,4.28L923.2,1080l-.63,1.04h-4.14l.63-1.04,1.97-3.25.01-.01,2.59-4.28,2.59-4.27,2.58-4.25.41-.68,1.31-2.16,1.3-2.15,11.45-18.88,1.36-2.25,1.36-2.24,10.69-17.64,1.42-2.34.01-.01,1.42-2.34.01-.01,9.86-16.28,1.5-2.46.01-.01,1.48-2.46,9.1-15.03.01-.01,1.52-2.49.9-1.49,1.5.91h.01Z" fill="#fff"/>
      </g>
      <g id="Group_37" data-name="Group 37">
        <path id="Path_30" data-name="Path 30" d="M1176.7,1077.959l-3.019-1.844L1241.5,965.088l50.844-78.506,2.97,1.924L1244.5,966.972Z" fill="#fff"/>
      </g>
      <g id="Group_38" data-name="Group 38">
        <path id="Path_31" data-name="Path 31" d="M1516.473,905.478l-.69.93-20.33,27.2-2.66,3.57-.35.46-2.55,3.22-24.02,30.3-2.43,3.06-.1.13-2.41,2.95-25.76,31.58-2.14,2.62-2.15,2.63-26.18,32.09-.52.64.36,1.47.51,2.02,3.04,12.28,1.12,4.51,1.12,4.52,1.13,4.55,1.13,4.56h-3.65l-1.13-4.56-1.13-4.54-1.12-4.53-1.12-4.5-2.95-11.88-.5-2.02-.51-2.04-.17-.7,25.28-30.98,1.8-2.2,2.14-2.63,25.59-31.36,1.91-2.34,2.53-3.1,1.02-1.25,23.42-29.55,1.57-1.98,2.92-3.67,1.15-1.46,21.86-29.25,1.47-1.97.67-.9,1.41,1.06h.01Z" fill="#fff"/>
      </g>
      <g id="Group_39" data-name="Group 39">
        <path id="Path_32" data-name="Path 32" d="M1692.2,799.04l-.2.44v.01l-.89,1.95-24.49,53.94-.7,1.54-.18.36-.93,1.86v.01l-26.19,52.89-.92,1.85v.01l-.93,1.85-1.48,3-25.03,50.06-.17.35-.68,1.57-.85,1.99-23.16,53.7-.85,1.97-.57,1.32.25.73,10.98,31.67,1.6,4.61v.01l1.61,4.63,1.61,4.64,1.38,4,.23.67h-3.74l-.23-.67-1.39-3.99V1076l-1.61-4.64-1.6-4.62v-.01l-1.6-4.61-11.07-31.95-.21-.6.67-1.54.92-2.14,22.49-52.17,1.02-2.36,1.02-2.38.59-1.36,25.22-50.44.27-.55,1.32-2.67,1.33-2.67,25.8-52.08,1.49-3.01v-.01l.39-.79.89-1.96,22.79-50.17,1.51-3.33v-.01l1.07-2.35,1.61.73.02.01Z" fill="#fff"/>
      </g>
    </g>
  </g>
</svg>
